<mxfile host="app.diagrams.net" agent="Mozilla/5.0 (Windows NT 10.0; Win64; x64) AppleWebKit/537.36 (KHTML, like Gecko) Chrome/132.0.0.0 Safari/537.36" version="26.0.7" pages="5">
  <diagram name="Page-1" id="4kq10S-54tKyrR_ujjfP">
    <mxGraphModel dx="-419" dy="1225" grid="1" gridSize="10" guides="1" tooltips="1" connect="1" arrows="1" fold="1" page="1" pageScale="1" pageWidth="1169" pageHeight="827" math="0" shadow="0">
      <root>
        <mxCell id="0" />
        <mxCell id="1" parent="0" />
        <mxCell id="DBX1dyEiMU7yV_MiqA5P-1" value="" style="ellipse;whiteSpace=wrap;html=1;aspect=fixed;fillColor=light-dark(#464a4e, #7d8c9b);strokeColor=#314354;fontColor=#ffffff;" parent="1" vertex="1">
          <mxGeometry x="1290.24" y="-120" width="50" height="50" as="geometry" />
        </mxCell>
        <mxCell id="DBX1dyEiMU7yV_MiqA5P-2" value="" style="endArrow=classic;html=1;rounded=0;exitX=0.5;exitY=1;exitDx=0;exitDy=0;" parent="1" edge="1">
          <mxGeometry width="50" height="50" relative="1" as="geometry">
            <mxPoint x="1314.84" y="-70" as="sourcePoint" />
            <mxPoint x="1315.08" y="-40" as="targetPoint" />
          </mxGeometry>
        </mxCell>
        <mxCell id="DBX1dyEiMU7yV_MiqA5P-3" value="&lt;font face=&quot;Lucida Console&quot;&gt;&lt;span style=&quot;font-size: 10px;&quot;&gt;&amp;nbsp;ادمین وارد بخش &quot;شکایات ثبت‌شده&quot; می‌شود&lt;/span&gt;&lt;/font&gt;" style="rounded=1;whiteSpace=wrap;html=1;fillColor=#f5f5f5;gradientColor=#b3b3b3;strokeColor=#666666;" parent="1" vertex="1">
          <mxGeometry x="1255.08" y="-40" width="120" height="60" as="geometry" />
        </mxCell>
        <mxCell id="DBX1dyEiMU7yV_MiqA5P-4" value="" style="endArrow=classic;html=1;rounded=0;exitX=0.5;exitY=1;exitDx=0;exitDy=0;entryX=0.5;entryY=0;entryDx=0;entryDy=0;" parent="1" target="DBX1dyEiMU7yV_MiqA5P-5" edge="1">
          <mxGeometry width="50" height="50" relative="1" as="geometry">
            <mxPoint x="1314.84" y="20" as="sourcePoint" />
            <mxPoint x="1315.08" y="50" as="targetPoint" />
          </mxGeometry>
        </mxCell>
        <mxCell id="DBX1dyEiMU7yV_MiqA5P-5" value="&lt;font face=&quot;Lucida Console&quot;&gt;&lt;span style=&quot;font-size: 10px;&quot;&gt;لیستی از تمامی شکایات موجود به تفکیک وضعیت و موضوع آن‌ها برای او نمایش داده می‌شود&lt;/span&gt;&lt;/font&gt;" style="rounded=1;whiteSpace=wrap;html=1;fillColor=#f5f5f5;gradientColor=#b3b3b3;strokeColor=#666666;" parent="1" vertex="1">
          <mxGeometry x="1255.08" y="40" width="120" height="70" as="geometry" />
        </mxCell>
        <mxCell id="DBX1dyEiMU7yV_MiqA5P-6" value="" style="endArrow=classic;html=1;rounded=0;exitX=0.5;exitY=1;exitDx=0;exitDy=0;" parent="1" edge="1">
          <mxGeometry width="50" height="50" relative="1" as="geometry">
            <mxPoint x="1314.79" y="110" as="sourcePoint" />
            <mxPoint x="1315.03" y="140" as="targetPoint" />
          </mxGeometry>
        </mxCell>
        <mxCell id="DBX1dyEiMU7yV_MiqA5P-31" style="edgeStyle=orthogonalEdgeStyle;rounded=0;orthogonalLoop=1;jettySize=auto;html=1;exitX=0.5;exitY=1;exitDx=0;exitDy=0;entryX=0.5;entryY=0;entryDx=0;entryDy=0;" parent="1" source="DBX1dyEiMU7yV_MiqA5P-7" target="DBX1dyEiMU7yV_MiqA5P-30" edge="1">
          <mxGeometry relative="1" as="geometry" />
        </mxCell>
        <mxCell id="DBX1dyEiMU7yV_MiqA5P-7" value="" style="rhombus;whiteSpace=wrap;html=1;" parent="1" vertex="1">
          <mxGeometry x="1290" y="140" width="50.16" height="40" as="geometry" />
        </mxCell>
        <mxCell id="DBX1dyEiMU7yV_MiqA5P-8" style="edgeStyle=orthogonalEdgeStyle;rounded=0;orthogonalLoop=1;jettySize=auto;html=1;exitX=1;exitY=0.5;exitDx=0;exitDy=0;entryX=0.5;entryY=0;entryDx=0;entryDy=0;" parent="1" target="DBX1dyEiMU7yV_MiqA5P-10" edge="1">
          <mxGeometry relative="1" as="geometry">
            <mxPoint x="1435.1599999999999" y="200" as="targetPoint" />
            <Array as="points">
              <mxPoint x="1440" y="160" />
            </Array>
            <mxPoint x="1340.1599999999999" y="160" as="sourcePoint" />
          </mxGeometry>
        </mxCell>
        <mxCell id="DBX1dyEiMU7yV_MiqA5P-9" value="[مشاهده جزئیات یک شکایت به خصوص ]&amp;nbsp;" style="text;html=1;align=center;verticalAlign=middle;whiteSpace=wrap;rounded=0;" parent="1" vertex="1">
          <mxGeometry x="1340.2399999999998" y="130" width="94.92" height="30" as="geometry" />
        </mxCell>
        <mxCell id="DBX1dyEiMU7yV_MiqA5P-10" value="&lt;font style=&quot;font-size: 10px;&quot; face=&quot;Lucida Console&quot;&gt;ادمین به دلخواه خود روی یکی از شکایت‌ها کلیک می‌کند&lt;/font&gt;" style="rounded=1;whiteSpace=wrap;html=1;fillColor=#f5f5f5;gradientColor=#b3b3b3;strokeColor=#666666;labelBorderColor=none;spacingLeft=2;spacingBottom=0;spacingRight=2;" parent="1" vertex="1">
          <mxGeometry x="1379.9999999999998" y="194" width="120" height="60" as="geometry" />
        </mxCell>
        <mxCell id="DBX1dyEiMU7yV_MiqA5P-11" value="" style="endArrow=classic;html=1;rounded=0;" parent="1" edge="1">
          <mxGeometry width="50" height="50" relative="1" as="geometry">
            <mxPoint x="1440" y="350" as="sourcePoint" />
            <mxPoint x="1439.96" y="374" as="targetPoint" />
          </mxGeometry>
        </mxCell>
        <mxCell id="DBX1dyEiMU7yV_MiqA5P-12" value="&lt;font style=&quot;font-size: 10px;&quot; face=&quot;Lucida Console&quot;&gt;اطلاعات و جزئیات بیشتر آن&amp;nbsp; شکایت نمایش داده می‌شود وضعیت شکایت(در صورت لزوم) به &quot;مشاهده شده&quot; تغییر پیدا می‌کند&lt;/font&gt;" style="rounded=1;whiteSpace=wrap;html=1;fillColor=#f5f5f5;gradientColor=#b3b3b3;strokeColor=#666666;labelBorderColor=none;spacingLeft=2;spacingBottom=0;spacingRight=2;" parent="1" vertex="1">
          <mxGeometry x="1380" y="280" width="120" height="70" as="geometry" />
        </mxCell>
        <mxCell id="DBX1dyEiMU7yV_MiqA5P-13" value="" style="endArrow=classic;html=1;rounded=0;exitX=0.5;exitY=1;exitDx=0;exitDy=0;" parent="1" edge="1">
          <mxGeometry width="50" height="50" relative="1" as="geometry">
            <mxPoint x="1439.81" y="254" as="sourcePoint" />
            <mxPoint x="1440" y="280" as="targetPoint" />
          </mxGeometry>
        </mxCell>
        <mxCell id="DBX1dyEiMU7yV_MiqA5P-28" style="edgeStyle=orthogonalEdgeStyle;rounded=0;orthogonalLoop=1;jettySize=auto;html=1;exitX=0.5;exitY=1;exitDx=0;exitDy=0;entryX=0.5;entryY=0;entryDx=0;entryDy=0;" parent="1" source="DBX1dyEiMU7yV_MiqA5P-14" target="DBX1dyEiMU7yV_MiqA5P-27" edge="1">
          <mxGeometry relative="1" as="geometry" />
        </mxCell>
        <mxCell id="DBX1dyEiMU7yV_MiqA5P-14" value="" style="rhombus;whiteSpace=wrap;html=1;" parent="1" vertex="1">
          <mxGeometry x="1414.92" y="374" width="50.16" height="40" as="geometry" />
        </mxCell>
        <mxCell id="DBX1dyEiMU7yV_MiqA5P-15" style="edgeStyle=orthogonalEdgeStyle;rounded=0;orthogonalLoop=1;jettySize=auto;html=1;exitX=1;exitY=0.5;exitDx=0;exitDy=0;entryX=0.5;entryY=0;entryDx=0;entryDy=0;" parent="1" source="DBX1dyEiMU7yV_MiqA5P-14" target="DBX1dyEiMU7yV_MiqA5P-17" edge="1">
          <mxGeometry relative="1" as="geometry">
            <mxPoint x="1564.92" y="426" as="targetPoint" />
            <Array as="points">
              <mxPoint x="1560" y="394" />
            </Array>
            <mxPoint x="1465.08" y="392" as="sourcePoint" />
          </mxGeometry>
        </mxCell>
        <mxCell id="DBX1dyEiMU7yV_MiqA5P-16" value="[رسیدگی به شکایت]" style="text;html=1;align=center;verticalAlign=middle;whiteSpace=wrap;rounded=0;" parent="1" vertex="1">
          <mxGeometry x="1465.0800000000002" y="362" width="94.92" height="28" as="geometry" />
        </mxCell>
        <mxCell id="DBX1dyEiMU7yV_MiqA5P-17" value="&lt;font style=&quot;font-size: 10px;&quot; face=&quot;Lucida Console&quot;&gt;ادمین اقدامات لازم برای رسیدگی به آن شکایت را انجام داده و وضعیت شکایت به &quot;درحال پیگیری&quot; تغییر پیدا می‌کند&lt;/font&gt;" style="rounded=1;whiteSpace=wrap;html=1;fillColor=#f5f5f5;gradientColor=#b3b3b3;strokeColor=#666666;labelBorderColor=none;spacingLeft=2;spacingBottom=0;spacingRight=2;" parent="1" vertex="1">
          <mxGeometry x="1500" y="430" width="120" height="80" as="geometry" />
        </mxCell>
        <mxCell id="DBX1dyEiMU7yV_MiqA5P-18" value="" style="endArrow=classic;html=1;rounded=0;exitX=0.5;exitY=1;exitDx=0;exitDy=0;" parent="1" edge="1">
          <mxGeometry width="50" height="50" relative="1" as="geometry">
            <mxPoint x="1564.8" y="510" as="sourcePoint" />
            <mxPoint x="1565.04" y="540" as="targetPoint" />
          </mxGeometry>
        </mxCell>
        <mxCell id="DBX1dyEiMU7yV_MiqA5P-23" style="edgeStyle=orthogonalEdgeStyle;rounded=0;orthogonalLoop=1;jettySize=auto;html=1;exitX=1;exitY=0.5;exitDx=0;exitDy=0;entryX=0.5;entryY=0;entryDx=0;entryDy=0;" parent="1" source="DBX1dyEiMU7yV_MiqA5P-19" target="DBX1dyEiMU7yV_MiqA5P-22" edge="1">
          <mxGeometry relative="1" as="geometry" />
        </mxCell>
        <mxCell id="DBX1dyEiMU7yV_MiqA5P-26" style="edgeStyle=orthogonalEdgeStyle;rounded=0;orthogonalLoop=1;jettySize=auto;html=1;exitX=0.5;exitY=1;exitDx=0;exitDy=0;entryX=0.5;entryY=0;entryDx=0;entryDy=0;" parent="1" source="DBX1dyEiMU7yV_MiqA5P-19" target="DBX1dyEiMU7yV_MiqA5P-24" edge="1">
          <mxGeometry relative="1" as="geometry" />
        </mxCell>
        <mxCell id="DBX1dyEiMU7yV_MiqA5P-19" value="" style="rhombus;whiteSpace=wrap;html=1;" parent="1" vertex="1">
          <mxGeometry x="1540" y="540" width="50.16" height="40" as="geometry" />
        </mxCell>
        <mxCell id="DBX1dyEiMU7yV_MiqA5P-21" value="[بستن پرونده آن شکایت]" style="text;html=1;align=center;verticalAlign=middle;whiteSpace=wrap;rounded=0;" parent="1" vertex="1">
          <mxGeometry x="1590.16" y="528" width="99.84" height="28" as="geometry" />
        </mxCell>
        <mxCell id="DBX1dyEiMU7yV_MiqA5P-25" style="edgeStyle=orthogonalEdgeStyle;rounded=0;orthogonalLoop=1;jettySize=auto;html=1;exitX=0.5;exitY=1;exitDx=0;exitDy=0;entryX=1;entryY=0.5;entryDx=0;entryDy=0;" parent="1" source="DBX1dyEiMU7yV_MiqA5P-22" target="DBX1dyEiMU7yV_MiqA5P-24" edge="1">
          <mxGeometry relative="1" as="geometry" />
        </mxCell>
        <mxCell id="DBX1dyEiMU7yV_MiqA5P-22" value="&lt;font style=&quot;font-size: 10px;&quot; face=&quot;Lucida Console&quot;&gt;کار ادمین با آن شکایت به اتمام رسیده و وضعیت این شکایت به حالت &quot;بسته شده&quot; در می‌آید&lt;/font&gt;" style="rounded=1;whiteSpace=wrap;html=1;fillColor=#f5f5f5;gradientColor=#b3b3b3;strokeColor=#666666;labelBorderColor=none;spacingLeft=2;spacingBottom=0;spacingRight=2;" parent="1" vertex="1">
          <mxGeometry x="1620" y="590" width="120" height="70" as="geometry" />
        </mxCell>
        <mxCell id="DBX1dyEiMU7yV_MiqA5P-29" style="edgeStyle=orthogonalEdgeStyle;rounded=0;orthogonalLoop=1;jettySize=auto;html=1;exitX=0.5;exitY=1;exitDx=0;exitDy=0;entryX=1;entryY=0.5;entryDx=0;entryDy=0;" parent="1" source="DBX1dyEiMU7yV_MiqA5P-24" target="DBX1dyEiMU7yV_MiqA5P-27" edge="1">
          <mxGeometry relative="1" as="geometry" />
        </mxCell>
        <mxCell id="DBX1dyEiMU7yV_MiqA5P-24" value="" style="rhombus;whiteSpace=wrap;html=1;" parent="1" vertex="1">
          <mxGeometry x="1540" y="670" width="50.16" height="40" as="geometry" />
        </mxCell>
        <mxCell id="DBX1dyEiMU7yV_MiqA5P-32" style="edgeStyle=orthogonalEdgeStyle;rounded=0;orthogonalLoop=1;jettySize=auto;html=1;exitX=0.5;exitY=1;exitDx=0;exitDy=0;entryX=1;entryY=0.5;entryDx=0;entryDy=0;" parent="1" source="DBX1dyEiMU7yV_MiqA5P-27" target="DBX1dyEiMU7yV_MiqA5P-30" edge="1">
          <mxGeometry relative="1" as="geometry" />
        </mxCell>
        <mxCell id="DBX1dyEiMU7yV_MiqA5P-27" value="" style="rhombus;whiteSpace=wrap;html=1;" parent="1" vertex="1">
          <mxGeometry x="1414.92" y="720" width="50.16" height="40" as="geometry" />
        </mxCell>
        <mxCell id="DBX1dyEiMU7yV_MiqA5P-30" value="" style="rhombus;whiteSpace=wrap;html=1;" parent="1" vertex="1">
          <mxGeometry x="1290" y="787" width="50.16" height="40" as="geometry" />
        </mxCell>
        <mxCell id="DBX1dyEiMU7yV_MiqA5P-33" value="" style="endArrow=classic;html=1;rounded=0;exitX=0.5;exitY=1;exitDx=0;exitDy=0;" parent="1" edge="1">
          <mxGeometry width="50" height="50" relative="1" as="geometry">
            <mxPoint x="1315" y="827" as="sourcePoint" />
            <mxPoint x="1315.24" y="857" as="targetPoint" />
          </mxGeometry>
        </mxCell>
        <mxCell id="DBX1dyEiMU7yV_MiqA5P-34" value="&lt;font face=&quot;Lucida Console&quot;&gt;&lt;span style=&quot;font-size: 10px;&quot;&gt;خروج از صفحه &quot;شکایات ثبت شده&quot;&lt;/span&gt;&lt;/font&gt;" style="rounded=1;whiteSpace=wrap;html=1;fillColor=#f5f5f5;gradientColor=#b3b3b3;strokeColor=#666666;" parent="1" vertex="1">
          <mxGeometry x="1255.24" y="857" width="120" height="60" as="geometry" />
        </mxCell>
        <mxCell id="DBX1dyEiMU7yV_MiqA5P-35" value="" style="endArrow=classic;html=1;rounded=0;exitX=0.5;exitY=1;exitDx=0;exitDy=0;entryX=0.5;entryY=0;entryDx=0;entryDy=0;" parent="1" edge="1">
          <mxGeometry width="50" height="50" relative="1" as="geometry">
            <mxPoint x="1315.08" y="917" as="sourcePoint" />
            <mxPoint x="1315.2" y="947" as="targetPoint" />
          </mxGeometry>
        </mxCell>
        <mxCell id="DBX1dyEiMU7yV_MiqA5P-36" value="" style="ellipse;whiteSpace=wrap;html=1;aspect=fixed;" parent="1" vertex="1">
          <mxGeometry x="1285.24" y="947" width="60" height="60" as="geometry" />
        </mxCell>
        <mxCell id="DBX1dyEiMU7yV_MiqA5P-37" value="" style="ellipse;whiteSpace=wrap;html=1;aspect=fixed;fillColor=#464A4E;fontColor=#ffffff;strokeColor=#314354;" parent="1" vertex="1">
          <mxGeometry x="1295.24" y="957" width="40" height="40" as="geometry" />
        </mxCell>
      </root>
    </mxGraphModel>
  </diagram>
  <diagram id="ZaO1LP4CxecZaP9ZOG5w" name="Page-2">
    <mxGraphModel dx="-469" dy="1198" grid="1" gridSize="10" guides="1" tooltips="1" connect="1" arrows="1" fold="1" page="1" pageScale="1" pageWidth="1169" pageHeight="827" math="0" shadow="0">
      <root>
        <mxCell id="0" />
        <mxCell id="1" parent="0" />
        <mxCell id="cTWUzhUrIuodc1TbhlUx-1" value="" style="ellipse;whiteSpace=wrap;html=1;aspect=fixed;fillColor=light-dark(#464a4e, #7d8c9b);strokeColor=#314354;fontColor=#ffffff;" vertex="1" parent="1">
          <mxGeometry x="1290.24" y="-120" width="50" height="50" as="geometry" />
        </mxCell>
        <mxCell id="cTWUzhUrIuodc1TbhlUx-2" value="" style="endArrow=classic;html=1;rounded=0;exitX=0.5;exitY=1;exitDx=0;exitDy=0;" edge="1" parent="1">
          <mxGeometry width="50" height="50" relative="1" as="geometry">
            <mxPoint x="1314.84" y="-70" as="sourcePoint" />
            <mxPoint x="1315.08" y="-40" as="targetPoint" />
          </mxGeometry>
        </mxCell>
        <mxCell id="cTWUzhUrIuodc1TbhlUx-5" style="edgeStyle=orthogonalEdgeStyle;rounded=0;orthogonalLoop=1;jettySize=auto;html=1;exitX=0.5;exitY=1;exitDx=0;exitDy=0;entryX=0.5;entryY=0;entryDx=0;entryDy=0;" edge="1" parent="1" source="cTWUzhUrIuodc1TbhlUx-3" target="cTWUzhUrIuodc1TbhlUx-4">
          <mxGeometry relative="1" as="geometry" />
        </mxCell>
        <mxCell id="cTWUzhUrIuodc1TbhlUx-3" value="&lt;font face=&quot;Lucida Console&quot;&gt;&lt;span style=&quot;font-size: 10px;&quot;&gt;&amp;nbsp;ادمین وارد بخش &quot;مدیریت سوالات متداول&quot; می‌شود&lt;/span&gt;&lt;/font&gt;" style="rounded=1;whiteSpace=wrap;html=1;fillColor=#f5f5f5;gradientColor=#b3b3b3;strokeColor=#666666;" vertex="1" parent="1">
          <mxGeometry x="1255.08" y="-40" width="120" height="60" as="geometry" />
        </mxCell>
        <mxCell id="cTWUzhUrIuodc1TbhlUx-4" value="&lt;font face=&quot;Lucida Console&quot;&gt;&lt;span style=&quot;font-size: 10px;&quot;&gt;لیستی از تمامی سوالات موجود به تفکیک وضعیت(متداول یا غیرمتداول) برای او نمایش داده می‌شود&lt;/span&gt;&lt;/font&gt;" style="rounded=1;whiteSpace=wrap;html=1;fillColor=#f5f5f5;gradientColor=#b3b3b3;strokeColor=#666666;" vertex="1" parent="1">
          <mxGeometry x="1255.24" y="50" width="120" height="70" as="geometry" />
        </mxCell>
        <mxCell id="cTWUzhUrIuodc1TbhlUx-6" style="edgeStyle=orthogonalEdgeStyle;rounded=0;orthogonalLoop=1;jettySize=auto;html=1;exitX=0.5;exitY=1;exitDx=0;exitDy=0;entryX=0.5;entryY=0;entryDx=0;entryDy=0;" edge="1" parent="1">
          <mxGeometry relative="1" as="geometry">
            <mxPoint x="1314.99" y="120" as="sourcePoint" />
            <mxPoint x="1314.99" y="150" as="targetPoint" />
          </mxGeometry>
        </mxCell>
        <mxCell id="YS1i6s16lzsUjs9qEtMZ-8" style="edgeStyle=orthogonalEdgeStyle;rounded=0;orthogonalLoop=1;jettySize=auto;html=1;exitX=0.5;exitY=1;exitDx=0;exitDy=0;entryX=0.5;entryY=0;entryDx=0;entryDy=0;" edge="1" parent="1" source="8Yg1qRL7vg_g_MgKDNFD-1" target="YS1i6s16lzsUjs9qEtMZ-7">
          <mxGeometry relative="1" as="geometry" />
        </mxCell>
        <mxCell id="8Yg1qRL7vg_g_MgKDNFD-1" value="" style="rhombus;whiteSpace=wrap;html=1;" vertex="1" parent="1">
          <mxGeometry x="1290" y="150" width="50.16" height="40" as="geometry" />
        </mxCell>
        <mxCell id="YLngpO1rSB9ac_GAESFd-1" value="&lt;font style=&quot;font-size: 10px;&quot; face=&quot;Lucida Console&quot;&gt;لیستی از تمامی سوال‌هایی که جزو سوالات متداول نیستند، نمایش داده می‌شود&lt;/font&gt;" style="rounded=1;whiteSpace=wrap;html=1;fillColor=#f5f5f5;gradientColor=#b3b3b3;strokeColor=#666666;labelBorderColor=none;spacingLeft=2;spacingBottom=0;spacingRight=2;" vertex="1" parent="1">
          <mxGeometry x="1375.0799999999997" y="200" width="120" height="60" as="geometry" />
        </mxCell>
        <mxCell id="No2xrOZs5HhTi1-fiWNf-1" value="[اضافه کردن]" style="text;html=1;align=center;verticalAlign=middle;whiteSpace=wrap;rounded=0;" vertex="1" parent="1">
          <mxGeometry x="1340.2400000000002" y="140" width="94.92" height="28" as="geometry" />
        </mxCell>
        <mxCell id="YS1i6s16lzsUjs9qEtMZ-1" style="edgeStyle=orthogonalEdgeStyle;rounded=0;orthogonalLoop=1;jettySize=auto;html=1;exitX=1;exitY=0.5;exitDx=0;exitDy=0;" edge="1" parent="1">
          <mxGeometry relative="1" as="geometry">
            <mxPoint x="1430" y="200" as="targetPoint" />
            <Array as="points">
              <mxPoint x="1430" y="170" />
            </Array>
            <mxPoint x="1340.1599999999999" y="170" as="sourcePoint" />
          </mxGeometry>
        </mxCell>
        <mxCell id="YS1i6s16lzsUjs9qEtMZ-2" style="edgeStyle=orthogonalEdgeStyle;rounded=0;orthogonalLoop=1;jettySize=auto;html=1;exitX=0.5;exitY=1;exitDx=0;exitDy=0;entryX=0.5;entryY=0;entryDx=0;entryDy=0;" edge="1" parent="1" target="YS1i6s16lzsUjs9qEtMZ-3">
          <mxGeometry relative="1" as="geometry">
            <mxPoint x="1434.87" y="260" as="sourcePoint" />
            <mxPoint x="1434.87" y="290" as="targetPoint" />
          </mxGeometry>
        </mxCell>
        <mxCell id="YS1i6s16lzsUjs9qEtMZ-3" value="&lt;font style=&quot;font-size: 10px;&quot; face=&quot;Lucida Console&quot;&gt;ادمین یکی از این سوالات را انتخاب کرده، پاسخ آن را می‌دهد و روی گزینه اضافه کردن به مجموعه، کلیک می‌کند&lt;/font&gt;" style="rounded=1;whiteSpace=wrap;html=1;fillColor=#f5f5f5;gradientColor=#b3b3b3;strokeColor=#666666;labelBorderColor=none;spacingLeft=2;spacingBottom=0;spacingRight=2;" vertex="1" parent="1">
          <mxGeometry x="1375.08" y="280" width="120" height="70" as="geometry" />
        </mxCell>
        <mxCell id="YS1i6s16lzsUjs9qEtMZ-4" style="edgeStyle=orthogonalEdgeStyle;rounded=0;orthogonalLoop=1;jettySize=auto;html=1;exitX=0.5;exitY=1;exitDx=0;exitDy=0;entryX=0.5;entryY=0;entryDx=0;entryDy=0;" edge="1" parent="1">
          <mxGeometry relative="1" as="geometry">
            <mxPoint x="1434.87" y="350" as="sourcePoint" />
            <mxPoint x="1434.87" y="380" as="targetPoint" />
          </mxGeometry>
        </mxCell>
        <mxCell id="YS1i6s16lzsUjs9qEtMZ-5" value="&lt;font style=&quot;font-size: 10px;&quot; face=&quot;Lucida Console&quot;&gt;آن سوال به همراه پاسخش به مجموعه سوالات متداول اضافه می‌شود و یک پیغام تایید برای ادمین نمایش داده می‌شود&lt;/font&gt;" style="rounded=1;whiteSpace=wrap;html=1;fillColor=#f5f5f5;gradientColor=#b3b3b3;strokeColor=#666666;labelBorderColor=none;spacingLeft=2;spacingBottom=0;spacingRight=2;" vertex="1" parent="1">
          <mxGeometry x="1375.2399999999998" y="380" width="120" height="60" as="geometry" />
        </mxCell>
        <mxCell id="YS1i6s16lzsUjs9qEtMZ-6" style="edgeStyle=orthogonalEdgeStyle;rounded=0;orthogonalLoop=1;jettySize=auto;html=1;exitX=0.5;exitY=1;exitDx=0;exitDy=0;entryX=1;entryY=0.5;entryDx=0;entryDy=0;" edge="1" parent="1" target="YS1i6s16lzsUjs9qEtMZ-7">
          <mxGeometry relative="1" as="geometry">
            <mxPoint x="1435.03" y="440" as="sourcePoint" />
            <mxPoint x="1435.03" y="470" as="targetPoint" />
            <Array as="points">
              <mxPoint x="1435" y="470" />
            </Array>
          </mxGeometry>
        </mxCell>
        <mxCell id="YS1i6s16lzsUjs9qEtMZ-7" value="" style="rhombus;whiteSpace=wrap;html=1;" vertex="1" parent="1">
          <mxGeometry x="1290" y="450" width="50.16" height="40" as="geometry" />
        </mxCell>
        <mxCell id="YS1i6s16lzsUjs9qEtMZ-9" style="edgeStyle=orthogonalEdgeStyle;rounded=0;orthogonalLoop=1;jettySize=auto;html=1;exitX=0.5;exitY=1;exitDx=0;exitDy=0;entryX=0.5;entryY=0;entryDx=0;entryDy=0;" edge="1" parent="1">
          <mxGeometry relative="1" as="geometry">
            <mxPoint x="1314.95" y="490" as="sourcePoint" />
            <mxPoint x="1314.95" y="520" as="targetPoint" />
          </mxGeometry>
        </mxCell>
        <mxCell id="YS1i6s16lzsUjs9qEtMZ-30" style="edgeStyle=orthogonalEdgeStyle;rounded=0;orthogonalLoop=1;jettySize=auto;html=1;exitX=0.5;exitY=1;exitDx=0;exitDy=0;entryX=0;entryY=0.5;entryDx=0;entryDy=0;" edge="1" parent="1" source="YS1i6s16lzsUjs9qEtMZ-10" target="YS1i6s16lzsUjs9qEtMZ-28">
          <mxGeometry relative="1" as="geometry">
            <Array as="points">
              <mxPoint x="1315" y="785" />
              <mxPoint x="1250" y="785" />
              <mxPoint x="1250" y="1030" />
            </Array>
          </mxGeometry>
        </mxCell>
        <mxCell id="YS1i6s16lzsUjs9qEtMZ-10" value="" style="rhombus;whiteSpace=wrap;html=1;" vertex="1" parent="1">
          <mxGeometry x="1290.24" y="520" width="50.16" height="40" as="geometry" />
        </mxCell>
        <mxCell id="YS1i6s16lzsUjs9qEtMZ-11" value="[حذف یا ویرایش]" style="text;html=1;align=center;verticalAlign=middle;whiteSpace=wrap;rounded=0;" vertex="1" parent="1">
          <mxGeometry x="1340.0800000000004" y="510" width="94.92" height="28" as="geometry" />
        </mxCell>
        <mxCell id="YS1i6s16lzsUjs9qEtMZ-12" style="edgeStyle=orthogonalEdgeStyle;rounded=0;orthogonalLoop=1;jettySize=auto;html=1;exitX=1;exitY=0.5;exitDx=0;exitDy=0;" edge="1" parent="1">
          <mxGeometry relative="1" as="geometry">
            <mxPoint x="1429.8400000000001" y="570" as="targetPoint" />
            <Array as="points">
              <mxPoint x="1429.8400000000001" y="540" />
            </Array>
            <mxPoint x="1340" y="540" as="sourcePoint" />
          </mxGeometry>
        </mxCell>
        <mxCell id="YS1i6s16lzsUjs9qEtMZ-13" value="&lt;font style=&quot;font-size: 10px;&quot; face=&quot;Lucida Console&quot;&gt;لیست مجموعه سوالات متداول نمایش داده می‌شود&lt;/font&gt;" style="rounded=1;whiteSpace=wrap;html=1;fillColor=#f5f5f5;gradientColor=#b3b3b3;strokeColor=#666666;labelBorderColor=none;spacingLeft=2;spacingBottom=0;spacingRight=2;" vertex="1" parent="1">
          <mxGeometry x="1374.9199999999996" y="570" width="120" height="60" as="geometry" />
        </mxCell>
        <mxCell id="YS1i6s16lzsUjs9qEtMZ-14" style="edgeStyle=orthogonalEdgeStyle;rounded=0;orthogonalLoop=1;jettySize=auto;html=1;exitX=0.5;exitY=1;exitDx=0;exitDy=0;" edge="1" parent="1">
          <mxGeometry relative="1" as="geometry">
            <mxPoint x="1434.7099999999998" y="630" as="sourcePoint" />
            <mxPoint x="1435.09375" y="750.0000000000002" as="targetPoint" />
          </mxGeometry>
        </mxCell>
        <mxCell id="YS1i6s16lzsUjs9qEtMZ-15" value="&lt;font style=&quot;font-size: 10px;&quot; face=&quot;Lucida Console&quot;&gt;ادمین یکی از این سوال و پاسخ‌ها را انتخاب می‌کند&lt;/font&gt;" style="rounded=1;whiteSpace=wrap;html=1;fillColor=#f5f5f5;gradientColor=#b3b3b3;strokeColor=#666666;labelBorderColor=none;spacingLeft=2;spacingBottom=0;spacingRight=2;" vertex="1" parent="1">
          <mxGeometry x="1374.9199999999996" y="660" width="120" height="60" as="geometry" />
        </mxCell>
        <mxCell id="YS1i6s16lzsUjs9qEtMZ-16" style="edgeStyle=orthogonalEdgeStyle;rounded=0;orthogonalLoop=1;jettySize=auto;html=1;exitX=0.5;exitY=1;exitDx=0;exitDy=0;entryX=0.5;entryY=0;entryDx=0;entryDy=0;" edge="1" parent="1">
          <mxGeometry relative="1" as="geometry">
            <mxPoint x="1434.7099999999998" y="720" as="sourcePoint" />
            <mxPoint x="1434.7099999999998" y="750" as="targetPoint" />
          </mxGeometry>
        </mxCell>
        <mxCell id="YS1i6s16lzsUjs9qEtMZ-18" value="" style="rhombus;whiteSpace=wrap;html=1;" vertex="1" parent="1">
          <mxGeometry x="1410.16" y="750" width="50.16" height="40" as="geometry" />
        </mxCell>
        <mxCell id="YS1i6s16lzsUjs9qEtMZ-19" style="edgeStyle=orthogonalEdgeStyle;rounded=0;orthogonalLoop=1;jettySize=auto;html=1;exitX=0;exitY=0.5;exitDx=0;exitDy=0;" edge="1" parent="1">
          <mxGeometry relative="1" as="geometry">
            <mxPoint x="1330" y="810" as="targetPoint" />
            <mxPoint x="1409.91" y="770" as="sourcePoint" />
            <Array as="points">
              <mxPoint x="1330" y="770" />
            </Array>
          </mxGeometry>
        </mxCell>
        <mxCell id="YS1i6s16lzsUjs9qEtMZ-20" style="edgeStyle=orthogonalEdgeStyle;rounded=0;orthogonalLoop=1;jettySize=auto;html=1;exitX=1;exitY=0.5;exitDx=0;exitDy=0;" edge="1" parent="1">
          <mxGeometry relative="1" as="geometry">
            <mxPoint x="1540" y="810" as="targetPoint" />
            <Array as="points">
              <mxPoint x="1540" y="770" />
              <mxPoint x="1540" y="810" />
            </Array>
            <mxPoint x="1459.91" y="770" as="sourcePoint" />
          </mxGeometry>
        </mxCell>
        <mxCell id="YS1i6s16lzsUjs9qEtMZ-21" value="[ویرایش]" style="text;html=1;align=center;verticalAlign=middle;whiteSpace=wrap;rounded=0;" vertex="1" parent="1">
          <mxGeometry x="1334.91" y="740" width="60" height="30" as="geometry" />
        </mxCell>
        <mxCell id="YS1i6s16lzsUjs9qEtMZ-22" value="[حذف]" style="text;html=1;align=center;verticalAlign=middle;whiteSpace=wrap;rounded=0;" vertex="1" parent="1">
          <mxGeometry x="1474.91" y="740" width="60" height="30" as="geometry" />
        </mxCell>
        <mxCell id="YS1i6s16lzsUjs9qEtMZ-26" style="edgeStyle=orthogonalEdgeStyle;rounded=0;orthogonalLoop=1;jettySize=auto;html=1;exitX=0.5;exitY=1;exitDx=0;exitDy=0;entryX=1;entryY=0.5;entryDx=0;entryDy=0;" edge="1" parent="1" source="YS1i6s16lzsUjs9qEtMZ-23" target="YS1i6s16lzsUjs9qEtMZ-25">
          <mxGeometry relative="1" as="geometry" />
        </mxCell>
        <mxCell id="YS1i6s16lzsUjs9qEtMZ-23" value="&lt;font style=&quot;font-size: 10px;&quot; face=&quot;Lucida Console&quot;&gt;ادمین گزینه &quot;حذف سوال و پاسخ از لیست&quot; را انتخاب کرده و آن سوال به همراه پاسخش از لیست سوالات متداول به طور کامل پاک می‌شود&lt;/font&gt;" style="rounded=1;whiteSpace=wrap;html=1;fillColor=#f5f5f5;gradientColor=#b3b3b3;strokeColor=#666666;labelBorderColor=none;spacingLeft=2;spacingBottom=0;spacingRight=2;" vertex="1" parent="1">
          <mxGeometry x="1480" y="810" width="120" height="90" as="geometry" />
        </mxCell>
        <mxCell id="YS1i6s16lzsUjs9qEtMZ-27" style="edgeStyle=orthogonalEdgeStyle;rounded=0;orthogonalLoop=1;jettySize=auto;html=1;exitX=0.5;exitY=1;exitDx=0;exitDy=0;entryX=0;entryY=0.5;entryDx=0;entryDy=0;" edge="1" parent="1" source="YS1i6s16lzsUjs9qEtMZ-24" target="YS1i6s16lzsUjs9qEtMZ-25">
          <mxGeometry relative="1" as="geometry" />
        </mxCell>
        <mxCell id="YS1i6s16lzsUjs9qEtMZ-24" value="&lt;font style=&quot;font-size: 10px;&quot; face=&quot;Lucida Console&quot;&gt;ادمین گزینه &quot;ویرایش سوال&quot; را انتخاب کرده، تغییرات مورد نظرش را می‌دهد و سپس روی گزینه &quot;اعمال تغییر&quot; کلیک می‌کند&lt;/font&gt;" style="rounded=1;whiteSpace=wrap;html=1;fillColor=#f5f5f5;gradientColor=#b3b3b3;strokeColor=#666666;labelBorderColor=none;spacingLeft=2;spacingBottom=0;spacingRight=2;" vertex="1" parent="1">
          <mxGeometry x="1274.91" y="810" width="120" height="80" as="geometry" />
        </mxCell>
        <mxCell id="YS1i6s16lzsUjs9qEtMZ-29" style="edgeStyle=orthogonalEdgeStyle;rounded=0;orthogonalLoop=1;jettySize=auto;html=1;exitX=0.5;exitY=1;exitDx=0;exitDy=0;entryX=1;entryY=0.5;entryDx=0;entryDy=0;" edge="1" parent="1" source="YS1i6s16lzsUjs9qEtMZ-25" target="YS1i6s16lzsUjs9qEtMZ-28">
          <mxGeometry relative="1" as="geometry" />
        </mxCell>
        <mxCell id="YS1i6s16lzsUjs9qEtMZ-25" value="" style="rhombus;whiteSpace=wrap;html=1;" vertex="1" parent="1">
          <mxGeometry x="1409.8400000000001" y="920" width="50.16" height="40" as="geometry" />
        </mxCell>
        <mxCell id="YS1i6s16lzsUjs9qEtMZ-28" value="" style="rhombus;whiteSpace=wrap;html=1;" vertex="1" parent="1">
          <mxGeometry x="1290.24" y="1010" width="50.16" height="40" as="geometry" />
        </mxCell>
        <mxCell id="76TS5kqgORAG1flj0X7W-1" value="" style="endArrow=classic;html=1;rounded=0;exitX=0.5;exitY=1;exitDx=0;exitDy=0;" edge="1" parent="1">
          <mxGeometry width="50" height="50" relative="1" as="geometry">
            <mxPoint x="1315" y="1050" as="sourcePoint" />
            <mxPoint x="1315.24" y="1080" as="targetPoint" />
          </mxGeometry>
        </mxCell>
        <mxCell id="76TS5kqgORAG1flj0X7W-2" value="&lt;font face=&quot;Lucida Console&quot;&gt;&lt;span style=&quot;font-size: 10px;&quot;&gt;خروج از صفحه &quot;مدیریت سوالات متداول&quot;&lt;font style=&quot;color: rgb(179, 179, 179);&quot;&gt;س&lt;/font&gt;&lt;/span&gt;&lt;/font&gt;" style="rounded=1;whiteSpace=wrap;html=1;fillColor=#f5f5f5;gradientColor=#b3b3b3;strokeColor=#666666;" vertex="1" parent="1">
          <mxGeometry x="1255.24" y="1080" width="120" height="60" as="geometry" />
        </mxCell>
        <mxCell id="76TS5kqgORAG1flj0X7W-3" value="" style="endArrow=classic;html=1;rounded=0;exitX=0.5;exitY=1;exitDx=0;exitDy=0;entryX=0.5;entryY=0;entryDx=0;entryDy=0;" edge="1" parent="1">
          <mxGeometry width="50" height="50" relative="1" as="geometry">
            <mxPoint x="1315.08" y="1140" as="sourcePoint" />
            <mxPoint x="1315.2" y="1170" as="targetPoint" />
          </mxGeometry>
        </mxCell>
        <mxCell id="76TS5kqgORAG1flj0X7W-4" value="" style="ellipse;whiteSpace=wrap;html=1;aspect=fixed;" vertex="1" parent="1">
          <mxGeometry x="1285.24" y="1170" width="60" height="60" as="geometry" />
        </mxCell>
        <mxCell id="76TS5kqgORAG1flj0X7W-5" value="" style="ellipse;whiteSpace=wrap;html=1;aspect=fixed;fillColor=#464A4E;fontColor=#ffffff;strokeColor=#314354;" vertex="1" parent="1">
          <mxGeometry x="1295.24" y="1180" width="40" height="40" as="geometry" />
        </mxCell>
      </root>
    </mxGraphModel>
  </diagram>
  <diagram id="0VMnLxbs5jkXwxWwh7Wb" name="Page-3">
    <mxGraphModel dx="618" dy="1155" grid="1" gridSize="10" guides="1" tooltips="1" connect="1" arrows="1" fold="1" page="1" pageScale="1" pageWidth="1169" pageHeight="827" math="0" shadow="0">
      <root>
        <mxCell id="0" />
        <mxCell id="1" parent="0" />
        <mxCell id="LdSXf5Mj6r18JsxgLnsU-1" value="" style="ellipse;whiteSpace=wrap;html=1;aspect=fixed;fillColor=light-dark(#464a4e, #7d8c9b);strokeColor=#314354;fontColor=#ffffff;" vertex="1" parent="1">
          <mxGeometry x="1290.24" y="-120" width="50" height="50" as="geometry" />
        </mxCell>
        <mxCell id="LdSXf5Mj6r18JsxgLnsU-2" value="" style="endArrow=classic;html=1;rounded=0;exitX=0.5;exitY=1;exitDx=0;exitDy=0;" edge="1" parent="1">
          <mxGeometry width="50" height="50" relative="1" as="geometry">
            <mxPoint x="1314.84" y="-70" as="sourcePoint" />
            <mxPoint x="1315.08" y="-40" as="targetPoint" />
          </mxGeometry>
        </mxCell>
        <mxCell id="LdSXf5Mj6r18JsxgLnsU-3" value="&lt;font face=&quot;Lucida Console&quot;&gt;&lt;span style=&quot;font-size: 10px;&quot;&gt;&amp;nbsp;ادمین وارد بخش &quot;مدیریت عریضه‌نویسان&quot; می‌شود&lt;/span&gt;&lt;/font&gt;" style="rounded=1;whiteSpace=wrap;html=1;fillColor=#f5f5f5;gradientColor=#b3b3b3;strokeColor=#666666;" vertex="1" parent="1">
          <mxGeometry x="1255.08" y="-40" width="120" height="50" as="geometry" />
        </mxCell>
        <mxCell id="7tXbrJCVKHUHoISTUDVv-1" style="edgeStyle=orthogonalEdgeStyle;rounded=0;orthogonalLoop=1;jettySize=auto;html=1;exitX=0.5;exitY=1;exitDx=0;exitDy=0;entryX=0.5;entryY=0;entryDx=0;entryDy=0;" edge="1" parent="1">
          <mxGeometry relative="1" as="geometry">
            <mxPoint x="1312.4999999999998" y="10" as="sourcePoint" />
            <mxPoint x="1312.4999999999998" y="40" as="targetPoint" />
          </mxGeometry>
        </mxCell>
        <mxCell id="7tXbrJCVKHUHoISTUDVv-2" value="" style="rhombus;whiteSpace=wrap;html=1;" vertex="1" parent="1">
          <mxGeometry x="1287.95" y="40" width="50.16" height="40" as="geometry" />
        </mxCell>
        <mxCell id="7tXbrJCVKHUHoISTUDVv-3" style="edgeStyle=orthogonalEdgeStyle;rounded=0;orthogonalLoop=1;jettySize=auto;html=1;exitX=0;exitY=0.5;exitDx=0;exitDy=0;entryX=0.479;entryY=-0.012;entryDx=0;entryDy=0;entryPerimeter=0;" edge="1" parent="1" target="7tXbrJCVKHUHoISTUDVv-8">
          <mxGeometry relative="1" as="geometry">
            <mxPoint x="1207.79" y="100" as="targetPoint" />
            <mxPoint x="1287.7" y="60" as="sourcePoint" />
            <Array as="points">
              <mxPoint x="1210" y="60" />
              <mxPoint x="1210" y="100" />
              <mxPoint x="1210" y="100" />
            </Array>
          </mxGeometry>
        </mxCell>
        <mxCell id="7tXbrJCVKHUHoISTUDVv-4" style="edgeStyle=orthogonalEdgeStyle;rounded=0;orthogonalLoop=1;jettySize=auto;html=1;exitX=1;exitY=0.5;exitDx=0;exitDy=0;" edge="1" parent="1">
          <mxGeometry relative="1" as="geometry">
            <mxPoint x="1417.79" y="100" as="targetPoint" />
            <Array as="points">
              <mxPoint x="1417.79" y="60" />
              <mxPoint x="1417.79" y="100" />
            </Array>
            <mxPoint x="1337.7" y="60" as="sourcePoint" />
          </mxGeometry>
        </mxCell>
        <mxCell id="7tXbrJCVKHUHoISTUDVv-5" value="[اضافه]" style="text;html=1;align=center;verticalAlign=middle;whiteSpace=wrap;rounded=0;" vertex="1" parent="1">
          <mxGeometry x="1212.7" y="30" width="60" height="30" as="geometry" />
        </mxCell>
        <mxCell id="7tXbrJCVKHUHoISTUDVv-6" value="[حذف]" style="text;html=1;align=center;verticalAlign=middle;whiteSpace=wrap;rounded=0;" vertex="1" parent="1">
          <mxGeometry x="1352.7" y="30" width="60" height="30" as="geometry" />
        </mxCell>
        <mxCell id="7tXbrJCVKHUHoISTUDVv-7" value="&lt;font face=&quot;Lucida Console&quot;&gt;&lt;span style=&quot;font-size: 10px;&quot;&gt;لیستی از تمامی عریضه‌نویسان حاضر در سامانه برای ادمین نمایش داده می‌شود&lt;/span&gt;&lt;/font&gt;" style="rounded=1;whiteSpace=wrap;html=1;fillColor=#f5f5f5;gradientColor=#b3b3b3;strokeColor=#666666;labelBorderColor=none;spacingLeft=2;spacingBottom=0;spacingRight=2;" vertex="1" parent="1">
          <mxGeometry x="1357.79" y="100" width="120" height="60" as="geometry" />
        </mxCell>
        <mxCell id="7tXbrJCVKHUHoISTUDVv-8" value="&lt;font style=&quot;font-size: 10px;&quot; face=&quot;Lucida Console&quot;&gt;ادمین گزینه &quot;اضافه کردن عریضه‌نویس جدید&quot; را کلیک می‌کند&lt;/font&gt;" style="rounded=1;whiteSpace=wrap;html=1;fillColor=#f5f5f5;gradientColor=#b3b3b3;strokeColor=#666666;labelBorderColor=none;spacingLeft=2;spacingBottom=0;spacingRight=2;" vertex="1" parent="1">
          <mxGeometry x="1152.7" y="100" width="120" height="80" as="geometry" />
        </mxCell>
        <mxCell id="7tXbrJCVKHUHoISTUDVv-9" style="edgeStyle=orthogonalEdgeStyle;rounded=0;orthogonalLoop=1;jettySize=auto;html=1;exitX=0.5;exitY=1;exitDx=0;exitDy=0;entryX=0.5;entryY=0;entryDx=0;entryDy=0;" edge="1" parent="1">
          <mxGeometry relative="1" as="geometry">
            <mxPoint x="1417.6899999999996" y="160" as="sourcePoint" />
            <mxPoint x="1417.6899999999996" y="190" as="targetPoint" />
          </mxGeometry>
        </mxCell>
        <mxCell id="7tXbrJCVKHUHoISTUDVv-10" value="&lt;font face=&quot;Lucida Console&quot;&gt;&lt;span style=&quot;font-size: 10px;&quot;&gt;ادمین یکی از این عریضه نویسان را انتخاب کرده و روی آن کلیک می‌کند&lt;/span&gt;&lt;/font&gt;" style="rounded=1;whiteSpace=wrap;html=1;fillColor=#f5f5f5;gradientColor=#b3b3b3;strokeColor=#666666;labelBorderColor=none;spacingLeft=2;spacingBottom=0;spacingRight=2;" vertex="1" parent="1">
          <mxGeometry x="1357.79" y="190" width="120" height="60" as="geometry" />
        </mxCell>
        <mxCell id="7tXbrJCVKHUHoISTUDVv-11" style="edgeStyle=orthogonalEdgeStyle;rounded=0;orthogonalLoop=1;jettySize=auto;html=1;exitX=0.5;exitY=1;exitDx=0;exitDy=0;entryX=0.5;entryY=0;entryDx=0;entryDy=0;" edge="1" parent="1">
          <mxGeometry relative="1" as="geometry">
            <mxPoint x="1417.6899999999996" y="250" as="sourcePoint" />
            <mxPoint x="1417.6899999999996" y="280" as="targetPoint" />
          </mxGeometry>
        </mxCell>
        <mxCell id="7tXbrJCVKHUHoISTUDVv-12" value="&lt;font face=&quot;Lucida Console&quot;&gt;&lt;span style=&quot;font-size: 10px;&quot;&gt;پروفایل کاربری آن عریضه‌نویس به طور کامل نمایش داده می‌شود&lt;/span&gt;&lt;/font&gt;" style="rounded=1;whiteSpace=wrap;html=1;fillColor=#f5f5f5;gradientColor=#b3b3b3;strokeColor=#666666;labelBorderColor=none;spacingLeft=2;spacingBottom=0;spacingRight=2;" vertex="1" parent="1">
          <mxGeometry x="1357.79" y="280" width="120" height="60" as="geometry" />
        </mxCell>
        <mxCell id="7tXbrJCVKHUHoISTUDVv-13" style="edgeStyle=orthogonalEdgeStyle;rounded=0;orthogonalLoop=1;jettySize=auto;html=1;exitX=0.5;exitY=1;exitDx=0;exitDy=0;entryX=0.5;entryY=0;entryDx=0;entryDy=0;" edge="1" parent="1">
          <mxGeometry relative="1" as="geometry">
            <mxPoint x="1417.6899999999996" y="340" as="sourcePoint" />
            <mxPoint x="1417.6899999999996" y="370" as="targetPoint" />
          </mxGeometry>
        </mxCell>
        <mxCell id="7tXbrJCVKHUHoISTUDVv-14" value="&lt;font face=&quot;Lucida Console&quot;&gt;&lt;span style=&quot;font-size: 10px;&quot;&gt;ادمین روی گزینه &quot;حذف عریضه‌نویس&quot; کلیک می‌کند&lt;/span&gt;&lt;/font&gt;" style="rounded=1;whiteSpace=wrap;html=1;fillColor=#f5f5f5;gradientColor=#b3b3b3;strokeColor=#666666;labelBorderColor=none;spacingLeft=2;spacingBottom=0;spacingRight=2;" vertex="1" parent="1">
          <mxGeometry x="1357.79" y="370" width="120" height="60" as="geometry" />
        </mxCell>
        <mxCell id="7tXbrJCVKHUHoISTUDVv-15" style="edgeStyle=orthogonalEdgeStyle;rounded=0;orthogonalLoop=1;jettySize=auto;html=1;exitX=0.5;exitY=1;exitDx=0;exitDy=0;entryX=0.5;entryY=0;entryDx=0;entryDy=0;" edge="1" parent="1">
          <mxGeometry relative="1" as="geometry">
            <mxPoint x="1417.6899999999996" y="430" as="sourcePoint" />
            <mxPoint x="1417.6899999999996" y="460" as="targetPoint" />
          </mxGeometry>
        </mxCell>
        <mxCell id="7tXbrJCVKHUHoISTUDVv-24" style="edgeStyle=orthogonalEdgeStyle;rounded=0;orthogonalLoop=1;jettySize=auto;html=1;exitX=0.5;exitY=1;exitDx=0;exitDy=0;entryX=1;entryY=0.5;entryDx=0;entryDy=0;" edge="1" parent="1" source="7tXbrJCVKHUHoISTUDVv-16" target="7tXbrJCVKHUHoISTUDVv-23">
          <mxGeometry relative="1" as="geometry" />
        </mxCell>
        <mxCell id="7tXbrJCVKHUHoISTUDVv-16" value="&lt;font face=&quot;Lucida Console&quot;&gt;&lt;span style=&quot;font-size: 10px;&quot;&gt;یک پیغام تایید نشان داده شده، از این پس پروفایل کاربری این عریضه نویس غیرفعال شده و هیچ گونه درخواست عریضه جدیدی برای او ارسال نخواهد شد&lt;/span&gt;&lt;/font&gt;" style="rounded=1;whiteSpace=wrap;html=1;fillColor=#f5f5f5;gradientColor=#b3b3b3;strokeColor=#666666;labelBorderColor=none;spacingLeft=2;spacingBottom=0;spacingRight=2;" vertex="1" parent="1">
          <mxGeometry x="1357.79" y="460" width="120" height="100" as="geometry" />
        </mxCell>
        <mxCell id="7tXbrJCVKHUHoISTUDVv-17" style="edgeStyle=orthogonalEdgeStyle;rounded=0;orthogonalLoop=1;jettySize=auto;html=1;exitX=0.5;exitY=1;exitDx=0;exitDy=0;entryX=0.5;entryY=0;entryDx=0;entryDy=0;" edge="1" parent="1">
          <mxGeometry relative="1" as="geometry">
            <mxPoint x="1209.8999999999996" y="180" as="sourcePoint" />
            <mxPoint x="1209.8999999999996" y="210" as="targetPoint" />
          </mxGeometry>
        </mxCell>
        <mxCell id="7tXbrJCVKHUHoISTUDVv-18" value="&lt;font face=&quot;Lucida Console&quot;&gt;&lt;span style=&quot;font-size: 10px;&quot;&gt;یک صفحه جدید باز شده که در آن ادمین می‌تواند اطلاعات کامل عریضه‌ نویس جدید را وارد کند&lt;/span&gt;&lt;/font&gt;" style="rounded=1;whiteSpace=wrap;html=1;fillColor=#f5f5f5;gradientColor=#b3b3b3;strokeColor=#666666;labelBorderColor=none;spacingLeft=2;spacingBottom=0;spacingRight=2;" vertex="1" parent="1">
          <mxGeometry x="1150" y="210" width="120" height="60" as="geometry" />
        </mxCell>
        <mxCell id="7tXbrJCVKHUHoISTUDVv-19" style="edgeStyle=orthogonalEdgeStyle;rounded=0;orthogonalLoop=1;jettySize=auto;html=1;exitX=0.5;exitY=1;exitDx=0;exitDy=0;entryX=0.5;entryY=0;entryDx=0;entryDy=0;" edge="1" parent="1">
          <mxGeometry relative="1" as="geometry">
            <mxPoint x="1209.8999999999996" y="270" as="sourcePoint" />
            <mxPoint x="1209.8999999999996" y="300" as="targetPoint" />
          </mxGeometry>
        </mxCell>
        <mxCell id="goGy_a42yXNUcf-xAeRn-6" value="" style="edgeStyle=orthogonalEdgeStyle;rounded=0;orthogonalLoop=1;jettySize=auto;html=1;" edge="1" parent="1" source="7tXbrJCVKHUHoISTUDVv-20" target="7tXbrJCVKHUHoISTUDVv-22">
          <mxGeometry relative="1" as="geometry" />
        </mxCell>
        <mxCell id="7tXbrJCVKHUHoISTUDVv-20" value="&lt;font face=&quot;Lucida Console&quot;&gt;&lt;span style=&quot;font-size: 10px;&quot;&gt;پس از تکمیل فرم مربوط به اضافه کردن عریضه نویس جدید، ادمین دکمه تایید را کلیک می‌کند&lt;/span&gt;&lt;/font&gt;" style="rounded=1;whiteSpace=wrap;html=1;fillColor=#f5f5f5;gradientColor=#b3b3b3;strokeColor=#666666;labelBorderColor=none;spacingLeft=2;spacingBottom=0;spacingRight=2;" vertex="1" parent="1">
          <mxGeometry x="1150" y="300" width="120" height="60" as="geometry" />
        </mxCell>
        <mxCell id="7tXbrJCVKHUHoISTUDVv-21" style="edgeStyle=orthogonalEdgeStyle;rounded=0;orthogonalLoop=1;jettySize=auto;html=1;entryX=0.5;entryY=0;entryDx=0;entryDy=0;" edge="1" parent="1">
          <mxGeometry relative="1" as="geometry">
            <mxPoint x="1210" y="360" as="sourcePoint" />
            <mxPoint x="1209.8999999999996" y="385" as="targetPoint" />
          </mxGeometry>
        </mxCell>
        <mxCell id="7tXbrJCVKHUHoISTUDVv-25" style="edgeStyle=orthogonalEdgeStyle;rounded=0;orthogonalLoop=1;jettySize=auto;html=1;exitX=0.5;exitY=1;exitDx=0;exitDy=0;entryX=0;entryY=0.5;entryDx=0;entryDy=0;" edge="1" parent="1" source="7tXbrJCVKHUHoISTUDVv-22" target="7tXbrJCVKHUHoISTUDVv-23">
          <mxGeometry relative="1" as="geometry" />
        </mxCell>
        <mxCell id="7tXbrJCVKHUHoISTUDVv-22" value="&lt;font face=&quot;Lucida Console&quot;&gt;&lt;span style=&quot;font-size: 10px;&quot;&gt;پروفایل کاربری این عریضه نویس فعال شده و از این پس می‌تواند درخواست‌های عریضه نویسی دریافت کند&lt;/span&gt;&lt;/font&gt;" style="rounded=1;whiteSpace=wrap;html=1;fillColor=#f5f5f5;gradientColor=#b3b3b3;strokeColor=#666666;labelBorderColor=none;spacingLeft=2;spacingBottom=0;spacingRight=2;" vertex="1" parent="1">
          <mxGeometry x="1150" y="385" width="120" height="60" as="geometry" />
        </mxCell>
        <mxCell id="7tXbrJCVKHUHoISTUDVv-23" value="" style="rhombus;whiteSpace=wrap;html=1;" vertex="1" parent="1">
          <mxGeometry x="1287.95" y="600" width="50.16" height="40" as="geometry" />
        </mxCell>
        <mxCell id="goGy_a42yXNUcf-xAeRn-1" value="" style="endArrow=classic;html=1;rounded=0;exitX=0.5;exitY=1;exitDx=0;exitDy=0;" edge="1" parent="1">
          <mxGeometry width="50" height="50" relative="1" as="geometry">
            <mxPoint x="1312.79" y="640" as="sourcePoint" />
            <mxPoint x="1313.03" y="670" as="targetPoint" />
          </mxGeometry>
        </mxCell>
        <mxCell id="goGy_a42yXNUcf-xAeRn-2" value="&lt;font face=&quot;Lucida Console&quot;&gt;&lt;span style=&quot;font-size: 10px;&quot;&gt;خروج از صفحه &quot;مدیریت عریضه نویسان&quot;&lt;font style=&quot;color: rgb(179, 179, 179);&quot;&gt;س&lt;/font&gt;&lt;/span&gt;&lt;/font&gt;" style="rounded=1;whiteSpace=wrap;html=1;fillColor=#f5f5f5;gradientColor=#b3b3b3;strokeColor=#666666;" vertex="1" parent="1">
          <mxGeometry x="1253.03" y="670" width="120" height="60" as="geometry" />
        </mxCell>
        <mxCell id="goGy_a42yXNUcf-xAeRn-3" value="" style="endArrow=classic;html=1;rounded=0;exitX=0.5;exitY=1;exitDx=0;exitDy=0;entryX=0.5;entryY=0;entryDx=0;entryDy=0;" edge="1" parent="1">
          <mxGeometry width="50" height="50" relative="1" as="geometry">
            <mxPoint x="1312.87" y="730" as="sourcePoint" />
            <mxPoint x="1312.99" y="760" as="targetPoint" />
          </mxGeometry>
        </mxCell>
        <mxCell id="goGy_a42yXNUcf-xAeRn-4" value="" style="ellipse;whiteSpace=wrap;html=1;aspect=fixed;" vertex="1" parent="1">
          <mxGeometry x="1283.03" y="760" width="60" height="60" as="geometry" />
        </mxCell>
        <mxCell id="goGy_a42yXNUcf-xAeRn-5" value="" style="ellipse;whiteSpace=wrap;html=1;aspect=fixed;fillColor=#464A4E;fontColor=#ffffff;strokeColor=#314354;" vertex="1" parent="1">
          <mxGeometry x="1293.03" y="770" width="40" height="40" as="geometry" />
        </mxCell>
      </root>
    </mxGraphModel>
  </diagram>
  <diagram id="zqcBIEg7LxvqN57FCpNM" name="Page-4">
    <mxGraphModel dx="-885" dy="978" grid="1" gridSize="10" guides="1" tooltips="1" connect="1" arrows="1" fold="1" page="1" pageScale="1" pageWidth="1169" pageHeight="827" math="0" shadow="0">
      <root>
        <mxCell id="0" />
        <mxCell id="1" parent="0" />
        <mxCell id="bbd8pbyaNq5xacCEgPcb-1" value="" style="ellipse;whiteSpace=wrap;html=1;aspect=fixed;fillColor=light-dark(#464a4e, #7d8c9b);strokeColor=#314354;fontColor=#ffffff;" vertex="1" parent="1">
          <mxGeometry x="1290.32" y="-40" width="50" height="50" as="geometry" />
        </mxCell>
        <mxCell id="bbd8pbyaNq5xacCEgPcb-2" value="" style="endArrow=classic;html=1;rounded=0;exitX=0.5;exitY=1;exitDx=0;exitDy=0;" edge="1" parent="1">
          <mxGeometry width="50" height="50" relative="1" as="geometry">
            <mxPoint x="1314.9199999999998" y="10" as="sourcePoint" />
            <mxPoint x="1315.1599999999999" y="40" as="targetPoint" />
          </mxGeometry>
        </mxCell>
        <mxCell id="bbd8pbyaNq5xacCEgPcb-3" value="&lt;font face=&quot;Lucida Console&quot;&gt;&lt;span style=&quot;font-size: 10px;&quot;&gt;&amp;nbsp;ادمین وارد بخش &quot;مدیریت وکلا&quot; می‌شود&lt;/span&gt;&lt;/font&gt;" style="rounded=1;whiteSpace=wrap;html=1;fillColor=#f5f5f5;gradientColor=#b3b3b3;strokeColor=#666666;" vertex="1" parent="1">
          <mxGeometry x="1255.08" y="40" width="120" height="50" as="geometry" />
        </mxCell>
        <mxCell id="bbd8pbyaNq5xacCEgPcb-4" value="" style="endArrow=classic;html=1;rounded=0;exitX=0.5;exitY=1;exitDx=0;exitDy=0;" edge="1" parent="1">
          <mxGeometry width="50" height="50" relative="1" as="geometry">
            <mxPoint x="1314.9199999999998" y="90" as="sourcePoint" />
            <mxPoint x="1315.1599999999999" y="120" as="targetPoint" />
          </mxGeometry>
        </mxCell>
        <mxCell id="bbd8pbyaNq5xacCEgPcb-5" value="&lt;font face=&quot;Lucida Console&quot;&gt;&lt;span style=&quot;font-size: 10px;&quot;&gt;لیستی از تمامی وکلای ثبت شده در سیستم نمایش داده می‌شود&lt;/span&gt;&lt;/font&gt;" style="rounded=1;whiteSpace=wrap;html=1;fillColor=#f5f5f5;gradientColor=#b3b3b3;strokeColor=#666666;" vertex="1" parent="1">
          <mxGeometry x="1255.1599999999999" y="120" width="120" height="50" as="geometry" />
        </mxCell>
        <mxCell id="bbd8pbyaNq5xacCEgPcb-6" value="" style="endArrow=classic;html=1;rounded=0;exitX=0.5;exitY=1;exitDx=0;exitDy=0;" edge="1" parent="1">
          <mxGeometry width="50" height="50" relative="1" as="geometry">
            <mxPoint x="1315.08" y="170" as="sourcePoint" />
            <mxPoint x="1315.32" y="200" as="targetPoint" />
          </mxGeometry>
        </mxCell>
        <mxCell id="m6UVNMDMLjuOKcDX4v5O-40" style="edgeStyle=orthogonalEdgeStyle;rounded=0;orthogonalLoop=1;jettySize=auto;html=1;exitX=0.5;exitY=1;exitDx=0;exitDy=0;entryX=0.5;entryY=0;entryDx=0;entryDy=0;" edge="1" parent="1" source="DFS9OazRoUXoDv5GoPF8-1" target="m6UVNMDMLjuOKcDX4v5O-39">
          <mxGeometry relative="1" as="geometry" />
        </mxCell>
        <mxCell id="DFS9OazRoUXoDv5GoPF8-1" value="" style="rhombus;whiteSpace=wrap;html=1;" vertex="1" parent="1">
          <mxGeometry x="1290" y="200" width="50.16" height="40" as="geometry" />
        </mxCell>
        <mxCell id="m6UVNMDMLjuOKcDX4v5O-1" value="&lt;font style=&quot;font-size: 10px;&quot; face=&quot;Lucida Console&quot;&gt;ادمین روی نام یکی از وکلا به دلخواه کلیک می‌کند&lt;/font&gt;" style="rounded=1;whiteSpace=wrap;html=1;fillColor=#f5f5f5;gradientColor=#b3b3b3;strokeColor=#666666;labelBorderColor=none;spacingLeft=2;spacingBottom=0;spacingRight=2;" vertex="1" parent="1">
          <mxGeometry x="1375.1599999999996" y="250" width="120" height="60" as="geometry" />
        </mxCell>
        <mxCell id="m6UVNMDMLjuOKcDX4v5O-2" value="&lt;font style=&quot;font-size: 10px;&quot; face=&quot;Lucida Console&quot;&gt;[مشاهده پروفایل یک وکیل]&lt;/font&gt;" style="text;html=1;align=center;verticalAlign=middle;whiteSpace=wrap;rounded=0;" vertex="1" parent="1">
          <mxGeometry x="1340.1599999999999" y="190" width="109.68" height="28" as="geometry" />
        </mxCell>
        <mxCell id="m6UVNMDMLjuOKcDX4v5O-3" style="edgeStyle=orthogonalEdgeStyle;rounded=0;orthogonalLoop=1;jettySize=auto;html=1;exitX=1;exitY=0.5;exitDx=0;exitDy=0;" edge="1" parent="1">
          <mxGeometry relative="1" as="geometry">
            <mxPoint x="1430.08" y="250" as="targetPoint" />
            <Array as="points">
              <mxPoint x="1430.08" y="220" />
            </Array>
            <mxPoint x="1340.2399999999998" y="220" as="sourcePoint" />
          </mxGeometry>
        </mxCell>
        <mxCell id="m6UVNMDMLjuOKcDX4v5O-4" value="" style="endArrow=classic;html=1;rounded=0;exitX=0.5;exitY=1;exitDx=0;exitDy=0;" edge="1" parent="1">
          <mxGeometry width="50" height="50" relative="1" as="geometry">
            <mxPoint x="1429.76" y="310" as="sourcePoint" />
            <mxPoint x="1430" y="340" as="targetPoint" />
          </mxGeometry>
        </mxCell>
        <mxCell id="m6UVNMDMLjuOKcDX4v5O-14" style="edgeStyle=orthogonalEdgeStyle;rounded=0;orthogonalLoop=1;jettySize=auto;html=1;exitX=0.5;exitY=1;exitDx=0;exitDy=0;entryX=0.5;entryY=0;entryDx=0;entryDy=0;" edge="1" parent="1" source="m6UVNMDMLjuOKcDX4v5O-5" target="m6UVNMDMLjuOKcDX4v5O-13">
          <mxGeometry relative="1" as="geometry" />
        </mxCell>
        <mxCell id="m6UVNMDMLjuOKcDX4v5O-5" value="&lt;font face=&quot;Lucida Console&quot;&gt;&lt;span style=&quot;font-size: 10px;&quot;&gt;پروفایل آن وکیل به طور کامل به همراه تمامی اطلاعات او نمایش داده می‌شود&lt;/span&gt;&lt;/font&gt;" style="rounded=1;whiteSpace=wrap;html=1;fillColor=#f5f5f5;gradientColor=#b3b3b3;strokeColor=#666666;" vertex="1" parent="1">
          <mxGeometry x="1370" y="340" width="120" height="50" as="geometry" />
        </mxCell>
        <mxCell id="m6UVNMDMLjuOKcDX4v5O-36" style="edgeStyle=orthogonalEdgeStyle;rounded=0;orthogonalLoop=1;jettySize=auto;html=1;exitX=0.5;exitY=1;exitDx=0;exitDy=0;entryX=0.5;entryY=0;entryDx=0;entryDy=0;" edge="1" parent="1" source="m6UVNMDMLjuOKcDX4v5O-13" target="m6UVNMDMLjuOKcDX4v5O-35">
          <mxGeometry relative="1" as="geometry" />
        </mxCell>
        <mxCell id="m6UVNMDMLjuOKcDX4v5O-13" value="" style="rhombus;whiteSpace=wrap;html=1;" vertex="1" parent="1">
          <mxGeometry x="1404.92" y="420" width="50.16" height="40" as="geometry" />
        </mxCell>
        <mxCell id="m6UVNMDMLjuOKcDX4v5O-15" value="&lt;font style=&quot;font-size: 10px;&quot; face=&quot;Lucida Console&quot;&gt;ادمین روی گزینه &quot;حذف وکیل&quot; در صفحه مربوط به آن وکیل کلیک می‌کند&lt;/font&gt;" style="rounded=1;whiteSpace=wrap;html=1;fillColor=#f5f5f5;gradientColor=#b3b3b3;strokeColor=#666666;labelBorderColor=none;spacingLeft=2;spacingBottom=0;spacingRight=2;" vertex="1" parent="1">
          <mxGeometry x="1490.0799999999997" y="470" width="120" height="60" as="geometry" />
        </mxCell>
        <mxCell id="m6UVNMDMLjuOKcDX4v5O-16" value="&lt;font style=&quot;font-size: 10px;&quot; face=&quot;Lucida Console&quot;&gt;[حذف]&lt;/font&gt;" style="text;html=1;align=center;verticalAlign=middle;whiteSpace=wrap;rounded=0;" vertex="1" parent="1">
          <mxGeometry x="1455.08" y="410" width="109.68" height="28" as="geometry" />
        </mxCell>
        <mxCell id="m6UVNMDMLjuOKcDX4v5O-17" style="edgeStyle=orthogonalEdgeStyle;rounded=0;orthogonalLoop=1;jettySize=auto;html=1;exitX=1;exitY=0.5;exitDx=0;exitDy=0;" edge="1" parent="1">
          <mxGeometry relative="1" as="geometry">
            <mxPoint x="1545" y="470" as="targetPoint" />
            <Array as="points">
              <mxPoint x="1545" y="440" />
            </Array>
            <mxPoint x="1455.1599999999999" y="440" as="sourcePoint" />
          </mxGeometry>
        </mxCell>
        <mxCell id="m6UVNMDMLjuOKcDX4v5O-19" value="" style="endArrow=classic;html=1;rounded=0;exitX=0.5;exitY=1;exitDx=0;exitDy=0;" edge="1" parent="1">
          <mxGeometry width="50" height="50" relative="1" as="geometry">
            <mxPoint x="1549.76" y="530" as="sourcePoint" />
            <mxPoint x="1550" y="560" as="targetPoint" />
          </mxGeometry>
        </mxCell>
        <mxCell id="m6UVNMDMLjuOKcDX4v5O-20" value="&lt;font face=&quot;Lucida Console&quot;&gt;&lt;span style=&quot;font-size: 10px;&quot;&gt;پیغامی مبتنی بر اطمیان از حذف وکیل به ادمین نمایش داده می‌شود&lt;/span&gt;&lt;/font&gt;" style="rounded=1;whiteSpace=wrap;html=1;fillColor=#f5f5f5;gradientColor=#b3b3b3;strokeColor=#666666;" vertex="1" parent="1">
          <mxGeometry x="1490" y="560" width="120" height="50" as="geometry" />
        </mxCell>
        <mxCell id="m6UVNMDMLjuOKcDX4v5O-23" value="" style="endArrow=classic;html=1;rounded=0;exitX=0.5;exitY=1;exitDx=0;exitDy=0;" edge="1" parent="1">
          <mxGeometry width="50" height="50" relative="1" as="geometry">
            <mxPoint x="1549.84" y="610" as="sourcePoint" />
            <mxPoint x="1550.08" y="640" as="targetPoint" />
          </mxGeometry>
        </mxCell>
        <mxCell id="m6UVNMDMLjuOKcDX4v5O-32" style="edgeStyle=orthogonalEdgeStyle;rounded=0;orthogonalLoop=1;jettySize=auto;html=1;exitX=0.5;exitY=1;exitDx=0;exitDy=0;entryX=1;entryY=0.5;entryDx=0;entryDy=0;" edge="1" parent="1" source="m6UVNMDMLjuOKcDX4v5O-24" target="m6UVNMDMLjuOKcDX4v5O-31">
          <mxGeometry relative="1" as="geometry" />
        </mxCell>
        <mxCell id="m6UVNMDMLjuOKcDX4v5O-24" value="&lt;font face=&quot;Lucida Console&quot;&gt;&lt;span style=&quot;font-size: 10px;&quot;&gt;وکیل از سامانه حذف شده و تمامی اطلاعات مربوط به وی از سیستم پاک می‌شود. وکیل حذف شده دیگر نمی‌تواند در سامانه فعالیت کرده و دسترسی او به تمامی بخش‌ها مسدود خواهد شد&lt;/span&gt;&lt;/font&gt;&lt;span style=&quot;color: rgba(0, 0, 0, 0); font-family: monospace; font-size: 0px; text-align: start; text-wrap-mode: nowrap;&quot;&gt;%3CmxGraphModel%3E%3Croot%3E%3CmxCell%20id%3D%220%22%2F%3E%3CmxCell%20id%3D%221%22%20parent%3D%220%22%2F%3E%3CmxCell%20id%3D%222%22%20value%3D%22%22%20style%3D%22endArrow%3Dclassic%3Bhtml%3D1%3Brounded%3D0%3BexitX%3D0.5%3BexitY%3D1%3BexitDx%3D0%3BexitDy%3D0%3B%22%20edge%3D%221%22%20parent%3D%221%22%3E%3CmxGeometry%20width%3D%2250%22%20height%3D%2250%22%20relative%3D%221%22%20as%3D%22geometry%22%3E%3CmxPoint%20x%3D%221315%22%20y%3D%2290%22%20as%3D%22sourcePoint%22%2F%3E%3CmxPoint%20x%3D%221315.24%22%20y%3D%22120%22%20as%3D%22targetPoint%22%2F%3E%3C%2FmxGeometry%3E%3C%2FmxCell%3E%3CmxCell%20id%3D%223%22%20value%3D%22%26lt%3Bfont%20face%3D%26quot%3BLucida%20Console%26quot%3B%26gt%3B%26lt%3Bspan%20style%3D%26quot%3Bfont-size%3A%2010px%3B%26quot%3B%26gt%3B%26amp%3Bnbsp%3B%D8%A7%D8%AF%D9%85%DB%8C%D9%86%20%D9%88%D8%A7%D8%B1%D8%AF%20%D8%A8%D8%AE%D8%B4%20%26quot%3B%D9%85%D8%AF%DB%8C%D8%B1%DB%8C%D8%AA%20%D9%88%DA%A9%D9%84%D8%A7%26quot%3B%20%D9%85%DB%8C%E2%80%8C%D8%B4%D9%88%D8%AF%26lt%3B%2Fspan%26gt%3B%26lt%3B%2Ffont%26gt%3B%22%20style%3D%22rounded%3D1%3BwhiteSpace%3Dwrap%3Bhtml%3D1%3BfillColor%3D%23f5f5f5%3BgradientColor%3D%23b3b3b3%3BstrokeColor%3D%23666666%3B%22%20vertex%3D%221%22%20parent%3D%221%22%3E%3CmxGeometry%20x%3D%221255.24%22%20y%3D%22120%22%20width%3D%22120%22%20height%3D%2250%22%20as%3D%22geometry%22%2F%3E%3C%2FmxCell%3E%3C%2Froot%3E%3C%2FmxGraphModel%3E&lt;/span&gt;" style="rounded=1;whiteSpace=wrap;html=1;fillColor=#f5f5f5;gradientColor=#b3b3b3;strokeColor=#666666;" vertex="1" parent="1">
          <mxGeometry x="1610" y="777" width="120" height="113" as="geometry" />
        </mxCell>
        <mxCell id="m6UVNMDMLjuOKcDX4v5O-33" style="edgeStyle=orthogonalEdgeStyle;rounded=0;orthogonalLoop=1;jettySize=auto;html=1;exitX=0.5;exitY=1;exitDx=0;exitDy=0;entryX=0.5;entryY=0;entryDx=0;entryDy=0;" edge="1" parent="1" source="m6UVNMDMLjuOKcDX4v5O-25" target="m6UVNMDMLjuOKcDX4v5O-31">
          <mxGeometry relative="1" as="geometry" />
        </mxCell>
        <mxCell id="m6UVNMDMLjuOKcDX4v5O-25" value="" style="rhombus;whiteSpace=wrap;html=1;" vertex="1" parent="1">
          <mxGeometry x="1525" y="640" width="50.16" height="40" as="geometry" />
        </mxCell>
        <mxCell id="m6UVNMDMLjuOKcDX4v5O-30" style="edgeStyle=orthogonalEdgeStyle;rounded=0;orthogonalLoop=1;jettySize=auto;html=1;exitX=0.5;exitY=1;exitDx=0;exitDy=0;entryX=0.5;entryY=0;entryDx=0;entryDy=0;" edge="1" parent="1" source="m6UVNMDMLjuOKcDX4v5O-26" target="m6UVNMDMLjuOKcDX4v5O-24">
          <mxGeometry relative="1" as="geometry" />
        </mxCell>
        <mxCell id="m6UVNMDMLjuOKcDX4v5O-26" value="&lt;font style=&quot;font-size: 10px;&quot; face=&quot;Lucida Console&quot;&gt;یک پیغام مبنی بر حذف موفقیت‌آمیز وکیل نمایش داده می‌شود&lt;/font&gt;" style="rounded=1;whiteSpace=wrap;html=1;fillColor=#f5f5f5;gradientColor=#b3b3b3;strokeColor=#666666;labelBorderColor=none;spacingLeft=2;spacingBottom=0;spacingRight=2;" vertex="1" parent="1">
          <mxGeometry x="1610.1599999999996" y="690" width="120" height="60" as="geometry" />
        </mxCell>
        <mxCell id="m6UVNMDMLjuOKcDX4v5O-27" value="&lt;font style=&quot;font-size: 10px;&quot; face=&quot;Lucida Console&quot;&gt;[تایید حذف]&lt;/font&gt;" style="text;html=1;align=center;verticalAlign=middle;whiteSpace=wrap;rounded=0;" vertex="1" parent="1">
          <mxGeometry x="1575.1599999999999" y="630" width="109.68" height="28" as="geometry" />
        </mxCell>
        <mxCell id="m6UVNMDMLjuOKcDX4v5O-28" style="edgeStyle=orthogonalEdgeStyle;rounded=0;orthogonalLoop=1;jettySize=auto;html=1;exitX=1;exitY=0.5;exitDx=0;exitDy=0;" edge="1" parent="1">
          <mxGeometry relative="1" as="geometry">
            <mxPoint x="1670" y="690" as="targetPoint" />
            <Array as="points">
              <mxPoint x="1670" y="660" />
              <mxPoint x="1670" y="690" />
            </Array>
            <mxPoint x="1575.2399999999998" y="660" as="sourcePoint" />
          </mxGeometry>
        </mxCell>
        <mxCell id="m6UVNMDMLjuOKcDX4v5O-37" style="edgeStyle=orthogonalEdgeStyle;rounded=0;orthogonalLoop=1;jettySize=auto;html=1;exitX=0.5;exitY=1;exitDx=0;exitDy=0;entryX=1;entryY=0.5;entryDx=0;entryDy=0;" edge="1" parent="1" source="m6UVNMDMLjuOKcDX4v5O-31" target="m6UVNMDMLjuOKcDX4v5O-35">
          <mxGeometry relative="1" as="geometry" />
        </mxCell>
        <mxCell id="m6UVNMDMLjuOKcDX4v5O-31" value="" style="rhombus;whiteSpace=wrap;html=1;" vertex="1" parent="1">
          <mxGeometry x="1524.92" y="910" width="50.16" height="40" as="geometry" />
        </mxCell>
        <mxCell id="m6UVNMDMLjuOKcDX4v5O-34" value="&lt;font style=&quot;font-size: 10px;&quot; face=&quot;Lucida Console&quot;&gt;[لغو حذف]&lt;/font&gt;" style="text;html=1;align=center;verticalAlign=middle;whiteSpace=wrap;rounded=0;" vertex="1" parent="1">
          <mxGeometry x="1465.4799999999998" y="680" width="109.68" height="28" as="geometry" />
        </mxCell>
        <mxCell id="m6UVNMDMLjuOKcDX4v5O-41" style="edgeStyle=orthogonalEdgeStyle;rounded=0;orthogonalLoop=1;jettySize=auto;html=1;exitX=0.5;exitY=1;exitDx=0;exitDy=0;entryX=1;entryY=0.5;entryDx=0;entryDy=0;" edge="1" parent="1" source="m6UVNMDMLjuOKcDX4v5O-35" target="m6UVNMDMLjuOKcDX4v5O-39">
          <mxGeometry relative="1" as="geometry" />
        </mxCell>
        <mxCell id="m6UVNMDMLjuOKcDX4v5O-35" value="" style="rhombus;whiteSpace=wrap;html=1;" vertex="1" parent="1">
          <mxGeometry x="1404.92" y="970" width="50.16" height="40" as="geometry" />
        </mxCell>
        <mxCell id="m6UVNMDMLjuOKcDX4v5O-39" value="" style="rhombus;whiteSpace=wrap;html=1;" vertex="1" parent="1">
          <mxGeometry x="1290" y="1020" width="50.16" height="40" as="geometry" />
        </mxCell>
        <mxCell id="QjReBHQwv-KW5ul_WnFB-1" value="" style="endArrow=classic;html=1;rounded=0;exitX=0.5;exitY=1;exitDx=0;exitDy=0;" edge="1" parent="1">
          <mxGeometry width="50" height="50" relative="1" as="geometry">
            <mxPoint x="1315.08" y="1060" as="sourcePoint" />
            <mxPoint x="1315.32" y="1090" as="targetPoint" />
          </mxGeometry>
        </mxCell>
        <mxCell id="QjReBHQwv-KW5ul_WnFB-2" value="&lt;font face=&quot;Lucida Console&quot;&gt;&lt;span style=&quot;font-size: 10px;&quot;&gt;خروج از صفحه &quot;مدیریت وکلا&quot;&lt;font style=&quot;color: rgb(179, 179, 179);&quot;&gt;س&lt;/font&gt;&lt;/span&gt;&lt;/font&gt;" style="rounded=1;whiteSpace=wrap;html=1;fillColor=#f5f5f5;gradientColor=#b3b3b3;strokeColor=#666666;" vertex="1" parent="1">
          <mxGeometry x="1255.32" y="1090" width="120" height="60" as="geometry" />
        </mxCell>
        <mxCell id="QjReBHQwv-KW5ul_WnFB-3" value="" style="endArrow=classic;html=1;rounded=0;exitX=0.5;exitY=1;exitDx=0;exitDy=0;entryX=0.5;entryY=0;entryDx=0;entryDy=0;" edge="1" parent="1">
          <mxGeometry width="50" height="50" relative="1" as="geometry">
            <mxPoint x="1315.1599999999999" y="1150" as="sourcePoint" />
            <mxPoint x="1315.28" y="1180" as="targetPoint" />
          </mxGeometry>
        </mxCell>
        <mxCell id="QjReBHQwv-KW5ul_WnFB-4" value="" style="ellipse;whiteSpace=wrap;html=1;aspect=fixed;" vertex="1" parent="1">
          <mxGeometry x="1285.32" y="1180" width="60" height="60" as="geometry" />
        </mxCell>
        <mxCell id="QjReBHQwv-KW5ul_WnFB-5" value="" style="ellipse;whiteSpace=wrap;html=1;aspect=fixed;fillColor=#464A4E;fontColor=#ffffff;strokeColor=#314354;" vertex="1" parent="1">
          <mxGeometry x="1295.32" y="1190" width="40" height="40" as="geometry" />
        </mxCell>
      </root>
    </mxGraphModel>
  </diagram>
  <diagram id="7otJIPCc8_8_fnNyY71A" name="Page-5">
    <mxGraphModel dx="1313" dy="1523" grid="1" gridSize="10" guides="1" tooltips="1" connect="1" arrows="1" fold="1" page="1" pageScale="1" pageWidth="1169" pageHeight="827" math="0" shadow="0">
      <root>
        <mxCell id="0" />
        <mxCell id="1" parent="0" />
        <mxCell id="wJL55SFCRikx3ITARZqq-1" value="" style="ellipse;whiteSpace=wrap;html=1;aspect=fixed;fillColor=light-dark(#464a4e, #7d8c9b);strokeColor=#314354;fontColor=#ffffff;" vertex="1" parent="1">
          <mxGeometry x="1295.25" y="-40" width="50" height="50" as="geometry" />
        </mxCell>
        <mxCell id="wJL55SFCRikx3ITARZqq-2" value="" style="endArrow=classic;html=1;rounded=0;exitX=0.5;exitY=1;exitDx=0;exitDy=0;" edge="1" parent="1">
          <mxGeometry width="50" height="50" relative="1" as="geometry">
            <mxPoint x="1320.1899999999998" y="10" as="sourcePoint" />
            <mxPoint x="1320.4299999999998" y="40" as="targetPoint" />
          </mxGeometry>
        </mxCell>
        <mxCell id="wJL55SFCRikx3ITARZqq-3" value="&lt;font face=&quot;Lucida Console&quot;&gt;&lt;span style=&quot;font-size: 10px;&quot;&gt;&amp;nbsp;ادمین وارد بخش &quot;مدیریت بازخوردها&quot; می‌شود&lt;/span&gt;&lt;/font&gt;" style="rounded=1;whiteSpace=wrap;html=1;fillColor=#f5f5f5;gradientColor=#b3b3b3;strokeColor=#666666;" vertex="1" parent="1">
          <mxGeometry x="1260.33" y="40" width="120" height="50" as="geometry" />
        </mxCell>
        <mxCell id="jzk3dSLt8JwCBrUoVjtd-1" style="edgeStyle=orthogonalEdgeStyle;rounded=0;orthogonalLoop=1;jettySize=auto;html=1;exitX=0.5;exitY=1;exitDx=0;exitDy=0;entryX=0.5;entryY=0;entryDx=0;entryDy=0;" edge="1" parent="1">
          <mxGeometry relative="1" as="geometry">
            <mxPoint x="1319.7999999999997" y="90" as="sourcePoint" />
            <mxPoint x="1319.7999999999997" y="120" as="targetPoint" />
          </mxGeometry>
        </mxCell>
        <mxCell id="jzk3dSLt8JwCBrUoVjtd-2" value="" style="rhombus;whiteSpace=wrap;html=1;" vertex="1" parent="1">
          <mxGeometry x="1295.25" y="120" width="50.16" height="40" as="geometry" />
        </mxCell>
        <mxCell id="jzk3dSLt8JwCBrUoVjtd-3" style="edgeStyle=orthogonalEdgeStyle;rounded=0;orthogonalLoop=1;jettySize=auto;html=1;exitX=0;exitY=0.5;exitDx=0;exitDy=0;entryX=0.5;entryY=0;entryDx=0;entryDy=0;" edge="1" parent="1" target="jzk3dSLt8JwCBrUoVjtd-8">
          <mxGeometry relative="1" as="geometry">
            <mxPoint x="1220" y="170" as="targetPoint" />
            <mxPoint x="1295" y="140" as="sourcePoint" />
            <Array as="points">
              <mxPoint x="1220" y="140" />
            </Array>
          </mxGeometry>
        </mxCell>
        <mxCell id="jzk3dSLt8JwCBrUoVjtd-4" style="edgeStyle=orthogonalEdgeStyle;rounded=0;orthogonalLoop=1;jettySize=auto;html=1;exitX=1;exitY=0.5;exitDx=0;exitDy=0;" edge="1" parent="1">
          <mxGeometry relative="1" as="geometry">
            <mxPoint x="1425.09" y="180" as="targetPoint" />
            <Array as="points">
              <mxPoint x="1425.09" y="140" />
              <mxPoint x="1425.09" y="180" />
            </Array>
            <mxPoint x="1345" y="140" as="sourcePoint" />
          </mxGeometry>
        </mxCell>
        <mxCell id="jzk3dSLt8JwCBrUoVjtd-5" value="&lt;font style=&quot;font-size: 10px;&quot; face=&quot;Lucida Console&quot;&gt;[عریضه‌ها]&lt;/font&gt;" style="text;html=1;align=center;verticalAlign=middle;whiteSpace=wrap;rounded=0;" vertex="1" parent="1">
          <mxGeometry x="1220" y="110" width="60" height="30" as="geometry" />
        </mxCell>
        <mxCell id="jzk3dSLt8JwCBrUoVjtd-6" value="&lt;font style=&quot;font-size: 10px;&quot; face=&quot;Lucida Console&quot;&gt;[وکلا]&lt;/font&gt;" style="text;html=1;align=center;verticalAlign=middle;whiteSpace=wrap;rounded=0;" vertex="1" parent="1">
          <mxGeometry x="1360" y="110" width="60" height="30" as="geometry" />
        </mxCell>
        <mxCell id="jzk3dSLt8JwCBrUoVjtd-7" value="&lt;font face=&quot;Lucida Console&quot;&gt;&lt;span style=&quot;font-size: 10px;&quot;&gt;لیستی از تمامی نظرات و بازخورد‌های ثبت شده درباره وکلا به ترتیب تاریخ ثبت نمایش داده می‌شود&lt;/span&gt;&lt;/font&gt;" style="rounded=1;whiteSpace=wrap;html=1;fillColor=#f5f5f5;gradientColor=#b3b3b3;strokeColor=#666666;labelBorderColor=none;spacingLeft=2;spacingBottom=0;spacingRight=2;" vertex="1" parent="1">
          <mxGeometry x="1360" y="280" width="120" height="70" as="geometry" />
        </mxCell>
        <mxCell id="jzk3dSLt8JwCBrUoVjtd-8" value="&lt;span style=&quot;font-family: &amp;quot;Lucida Console&amp;quot;; font-size: 10px;&quot;&gt;ادمین فیلتر انتخاب را روی &quot;بازخورد‌های مربوط به عرایض&quot; می‌گذارد&lt;/span&gt;" style="rounded=1;whiteSpace=wrap;html=1;fillColor=#f5f5f5;gradientColor=#b3b3b3;strokeColor=#666666;labelBorderColor=none;spacingLeft=2;spacingBottom=0;spacingRight=2;" vertex="1" parent="1">
          <mxGeometry x="1160" y="180" width="120" height="70" as="geometry" />
        </mxCell>
        <mxCell id="WlhY1amxTyk48-Y_l90s-2" value="&lt;font style=&quot;font-size: 10px;&quot; face=&quot;Lucida Console&quot;&gt;ادمین به دلخواه روی یکی از بازخورد‌های ثبت شده کلیک می‌کند&lt;/font&gt;" style="rounded=1;whiteSpace=wrap;html=1;fillColor=#f5f5f5;gradientColor=#b3b3b3;strokeColor=#666666;labelBorderColor=none;spacingLeft=2;spacingBottom=0;spacingRight=2;" vertex="1" parent="1">
          <mxGeometry x="1375.1699999999996" y="500" width="120" height="60" as="geometry" />
        </mxCell>
        <mxCell id="WlhY1amxTyk48-Y_l90s-3" value="&lt;font style=&quot;font-size: 10px;&quot; face=&quot;Lucida Console&quot;&gt;[مشاهده جزئیات یک بازخورد]&lt;/font&gt;" style="text;html=1;align=center;verticalAlign=middle;whiteSpace=wrap;rounded=0;" vertex="1" parent="1">
          <mxGeometry x="1340.0000000000002" y="440" width="119.84" height="28" as="geometry" />
        </mxCell>
        <mxCell id="WlhY1amxTyk48-Y_l90s-4" style="edgeStyle=orthogonalEdgeStyle;rounded=0;orthogonalLoop=1;jettySize=auto;html=1;exitX=1;exitY=0.5;exitDx=0;exitDy=0;" edge="1" parent="1">
          <mxGeometry relative="1" as="geometry">
            <mxPoint x="1435.25" y="500" as="targetPoint" />
            <Array as="points">
              <mxPoint x="1435.25" y="470" />
            </Array>
            <mxPoint x="1345.4099999999999" y="470" as="sourcePoint" />
          </mxGeometry>
        </mxCell>
        <mxCell id="zEBSahM_Un_bH2eKc1Do-1" value="" style="endArrow=classic;html=1;rounded=0;exitX=0.5;exitY=1;exitDx=0;exitDy=0;" edge="1" parent="1">
          <mxGeometry width="50" height="50" relative="1" as="geometry">
            <mxPoint x="1424.78" y="250" as="sourcePoint" />
            <mxPoint x="1425.02" y="280" as="targetPoint" />
          </mxGeometry>
        </mxCell>
        <mxCell id="5Q8ZT4ZX-WuJLhGfivhW-7" style="edgeStyle=orthogonalEdgeStyle;rounded=0;orthogonalLoop=1;jettySize=auto;html=1;exitX=0.5;exitY=1;exitDx=0;exitDy=0;entryX=1;entryY=0.5;entryDx=0;entryDy=0;" edge="1" parent="1" source="zEBSahM_Un_bH2eKc1Do-2" target="5Q8ZT4ZX-WuJLhGfivhW-6">
          <mxGeometry relative="1" as="geometry" />
        </mxCell>
        <mxCell id="zEBSahM_Un_bH2eKc1Do-2" value="&lt;font style=&quot;font-size: 10px;&quot; face=&quot;Lucida Console&quot;&gt;جزئیات آن بازخورد شامل متن کامل بازخورد، تاریخ ثبت، یوزرنیم کاربر ثبت کننده نظر، امتیازی که داده است و آیدی وکیل/عریضه ای که این بازخورد برای آن ثبت شده است، نشان داده می‌شود&lt;/font&gt;" style="rounded=1;whiteSpace=wrap;html=1;fillColor=#f5f5f5;gradientColor=#b3b3b3;strokeColor=#666666;labelBorderColor=none;spacingLeft=2;spacingBottom=0;spacingRight=2;" vertex="1" parent="1">
          <mxGeometry x="1375.17" y="590" width="120" height="110" as="geometry" />
        </mxCell>
        <mxCell id="zEBSahM_Un_bH2eKc1Do-3" value="" style="endArrow=classic;html=1;rounded=0;exitX=0.5;exitY=1;exitDx=0;exitDy=0;" edge="1" parent="1">
          <mxGeometry width="50" height="50" relative="1" as="geometry">
            <mxPoint x="1435.17" y="560" as="sourcePoint" />
            <mxPoint x="1435.41" y="590" as="targetPoint" />
          </mxGeometry>
        </mxCell>
        <mxCell id="zEBSahM_Un_bH2eKc1Do-4" value="" style="endArrow=classic;html=1;rounded=0;exitX=0.5;exitY=1;exitDx=0;exitDy=0;entryX=1;entryY=0.5;entryDx=0;entryDy=0;" edge="1" parent="1" target="5Q8ZT4ZX-WuJLhGfivhW-1">
          <mxGeometry width="50" height="50" relative="1" as="geometry">
            <mxPoint x="1419.87" y="350" as="sourcePoint" />
            <mxPoint x="1420.11" y="380" as="targetPoint" />
            <Array as="points">
              <mxPoint x="1420" y="400" />
            </Array>
          </mxGeometry>
        </mxCell>
        <mxCell id="zEBSahM_Un_bH2eKc1Do-5" value="&lt;font face=&quot;Lucida Console&quot;&gt;&lt;span style=&quot;font-size: 10px;&quot;&gt;ادمین فیلتر انتخاب را روی &quot;بازخورد‌های مربوط به وکلا&quot; می‌گذارد&lt;/span&gt;&lt;/font&gt;" style="rounded=1;whiteSpace=wrap;html=1;fillColor=#f5f5f5;gradientColor=#b3b3b3;strokeColor=#666666;labelBorderColor=none;spacingLeft=2;spacingBottom=0;spacingRight=2;" vertex="1" parent="1">
          <mxGeometry x="1360" y="180" width="120" height="70" as="geometry" />
        </mxCell>
        <mxCell id="5Q8ZT4ZX-WuJLhGfivhW-2" style="edgeStyle=orthogonalEdgeStyle;rounded=0;orthogonalLoop=1;jettySize=auto;html=1;exitX=0.5;exitY=1;exitDx=0;exitDy=0;entryX=0;entryY=0.5;entryDx=0;entryDy=0;" edge="1" parent="1" source="zEBSahM_Un_bH2eKc1Do-6" target="5Q8ZT4ZX-WuJLhGfivhW-1">
          <mxGeometry relative="1" as="geometry" />
        </mxCell>
        <mxCell id="zEBSahM_Un_bH2eKc1Do-6" value="&lt;span style=&quot;font-family: &amp;quot;Lucida Console&amp;quot;; font-size: 10px;&quot;&gt;لیستی از تمامی نظرات و بازخورد‌های ثبت شده درباره عرایض نوشته شده به ترتیب تاریخ ثبت نمایش داده می‌شود&lt;/span&gt;" style="rounded=1;whiteSpace=wrap;html=1;fillColor=#f5f5f5;gradientColor=#b3b3b3;strokeColor=#666666;labelBorderColor=none;spacingLeft=2;spacingBottom=0;spacingRight=2;" vertex="1" parent="1">
          <mxGeometry x="1160" y="280" width="120" height="70" as="geometry" />
        </mxCell>
        <mxCell id="zEBSahM_Un_bH2eKc1Do-8" style="edgeStyle=orthogonalEdgeStyle;rounded=0;orthogonalLoop=1;jettySize=auto;html=1;entryX=0.502;entryY=-0.039;entryDx=0;entryDy=0;entryPerimeter=0;" edge="1" parent="1" source="jzk3dSLt8JwCBrUoVjtd-8" target="zEBSahM_Un_bH2eKc1Do-6">
          <mxGeometry relative="1" as="geometry" />
        </mxCell>
        <mxCell id="5Q8ZT4ZX-WuJLhGfivhW-1" value="" style="rhombus;whiteSpace=wrap;html=1;" vertex="1" parent="1">
          <mxGeometry x="1295.0900000000001" y="380" width="50.16" height="40" as="geometry" />
        </mxCell>
        <mxCell id="5Q8ZT4ZX-WuJLhGfivhW-8" style="edgeStyle=orthogonalEdgeStyle;rounded=0;orthogonalLoop=1;jettySize=auto;html=1;exitX=0.5;exitY=1;exitDx=0;exitDy=0;" edge="1" parent="1" source="5Q8ZT4ZX-WuJLhGfivhW-3" target="5Q8ZT4ZX-WuJLhGfivhW-6">
          <mxGeometry relative="1" as="geometry" />
        </mxCell>
        <mxCell id="5Q8ZT4ZX-WuJLhGfivhW-3" value="" style="rhombus;whiteSpace=wrap;html=1;" vertex="1" parent="1">
          <mxGeometry x="1295.0900000000001" y="450" width="50.16" height="40" as="geometry" />
        </mxCell>
        <mxCell id="5Q8ZT4ZX-WuJLhGfivhW-4" style="edgeStyle=orthogonalEdgeStyle;rounded=0;orthogonalLoop=1;jettySize=auto;html=1;exitX=0.5;exitY=1;exitDx=0;exitDy=0;entryX=0.5;entryY=0;entryDx=0;entryDy=0;" edge="1" parent="1">
          <mxGeometry relative="1" as="geometry">
            <mxPoint x="1320.0199999999998" y="420" as="sourcePoint" />
            <mxPoint x="1320.0199999999998" y="450" as="targetPoint" />
          </mxGeometry>
        </mxCell>
        <mxCell id="5Q8ZT4ZX-WuJLhGfivhW-6" value="" style="rhombus;whiteSpace=wrap;html=1;" vertex="1" parent="1">
          <mxGeometry x="1295.0900000000001" y="720" width="50.16" height="40" as="geometry" />
        </mxCell>
        <mxCell id="K_djm0XSjvMF5-JZaKPs-1" value="" style="endArrow=classic;html=1;rounded=0;exitX=0.5;exitY=1;exitDx=0;exitDy=0;" edge="1" parent="1">
          <mxGeometry width="50" height="50" relative="1" as="geometry">
            <mxPoint x="1320.09" y="760" as="sourcePoint" />
            <mxPoint x="1320.33" y="790" as="targetPoint" />
          </mxGeometry>
        </mxCell>
        <mxCell id="K_djm0XSjvMF5-JZaKPs-2" value="&lt;font face=&quot;Lucida Console&quot;&gt;&lt;span style=&quot;font-size: 10px;&quot;&gt;خروج از صفحه &quot;مدیریت بازخوردها&quot;&lt;font style=&quot;color: rgb(179, 179, 179);&quot;&gt;س&lt;/font&gt;&lt;/span&gt;&lt;/font&gt;" style="rounded=1;whiteSpace=wrap;html=1;fillColor=#f5f5f5;gradientColor=#b3b3b3;strokeColor=#666666;" vertex="1" parent="1">
          <mxGeometry x="1260.33" y="790" width="120" height="60" as="geometry" />
        </mxCell>
        <mxCell id="K_djm0XSjvMF5-JZaKPs-3" value="" style="endArrow=classic;html=1;rounded=0;exitX=0.5;exitY=1;exitDx=0;exitDy=0;entryX=0.5;entryY=0;entryDx=0;entryDy=0;" edge="1" parent="1">
          <mxGeometry width="50" height="50" relative="1" as="geometry">
            <mxPoint x="1320.1699999999998" y="850" as="sourcePoint" />
            <mxPoint x="1320.29" y="880" as="targetPoint" />
          </mxGeometry>
        </mxCell>
        <mxCell id="K_djm0XSjvMF5-JZaKPs-4" value="" style="ellipse;whiteSpace=wrap;html=1;aspect=fixed;" vertex="1" parent="1">
          <mxGeometry x="1290.33" y="880" width="60" height="60" as="geometry" />
        </mxCell>
        <mxCell id="K_djm0XSjvMF5-JZaKPs-5" value="" style="ellipse;whiteSpace=wrap;html=1;aspect=fixed;fillColor=#464A4E;fontColor=#ffffff;strokeColor=#314354;" vertex="1" parent="1">
          <mxGeometry x="1300.33" y="890" width="40" height="40" as="geometry" />
        </mxCell>
      </root>
    </mxGraphModel>
  </diagram>
</mxfile>
